<svg width="348" height="317" viewBox="0 0 348 317" fill="none" xmlns="http://www.w3.org/2000/svg">
<g filter="url(#filter0_b_86_16157)">
<rect width="347.392" height="316.811" rx="15.2892" fill="url(#paint0_linear_86_16157)"/>
<path d="M25.2628 48.6318V33.7263H29.6296C30.4642 33.7263 31.2017 33.9034 31.8422 34.2576C32.4875 34.6118 32.9921 35.1067 33.356 35.7423C33.7248 36.378 33.9091 37.1227 33.9091 37.9767C33.9091 38.821 33.7248 39.5609 33.356 40.1965C32.9921 40.8273 32.4875 41.3198 31.8422 41.674C31.2017 42.0233 30.4642 42.198 29.6296 42.198H25.4957V41.7322H29.6296C30.3768 41.7322 31.0367 41.5769 31.6093 41.2664C32.1818 40.9559 32.6306 40.5192 32.9557 39.9563C33.2808 39.3935 33.4433 38.7336 33.4433 37.9767C33.4433 37.2149 33.2808 36.5502 32.9557 35.9825C32.6306 35.4148 32.1818 34.9757 31.6093 34.6652C31.0367 34.3498 30.3768 34.1921 29.6296 34.1921H25.7286V48.6318H25.2628ZM30.9397 41.8487L34.6078 48.6318H34.0838L30.4157 41.8487H30.9397ZM41.5948 48.8647C40.6195 48.8647 39.7656 48.61 39.0329 48.1005C38.3051 47.5911 37.7398 46.8996 37.3371 46.0263C36.9344 45.1529 36.733 44.1679 36.733 43.0714C36.733 41.9748 36.9344 40.9898 37.3371 40.1165C37.7447 39.2431 38.2978 38.5517 38.9965 38.0422C39.6952 37.5327 40.4837 37.278 41.3619 37.278C42.0121 37.278 42.6137 37.4163 43.1669 37.6929C43.7249 37.9694 44.2101 38.3527 44.6225 38.8428C45.0349 39.3329 45.3552 39.8981 45.5832 40.5386C45.8161 41.1742 45.9325 41.8535 45.9325 42.5765V43.0423H36.9659V42.5765H45.4668C45.4668 41.6788 45.2824 40.8661 44.9136 40.1383C44.5449 39.4056 44.0499 38.8234 43.4289 38.3916C42.8078 37.9597 42.1188 37.7438 41.3619 37.7438C40.5953 37.7438 39.9014 37.9719 39.2804 38.428C38.6593 38.884 38.162 39.5051 37.7884 40.2911C37.4148 41.0772 37.2182 41.9651 37.1988 42.9549V43.0131C37.1988 43.9884 37.3687 44.886 37.7083 45.706C38.0528 46.5212 38.5526 47.1738 39.2076 47.6638C39.8626 48.1539 40.6584 48.3989 41.5948 48.3989C42.2838 48.3989 42.8612 48.2776 43.327 48.035C43.7976 47.7924 44.1737 47.5134 44.4551 47.1981C44.7414 46.8827 44.9524 46.6134 45.0883 46.3902L45.4668 46.6522C45.3018 46.9336 45.0543 47.2466 44.7244 47.5911C44.3944 47.9356 43.9723 48.234 43.458 48.4863C42.9437 48.7386 42.3226 48.8647 41.5948 48.8647ZM52.7248 37.4527V37.9185H48.2997V37.4527H52.7248ZM49.93 34.7743H50.3958V46.2737C50.3958 46.7104 50.4929 47.0865 50.687 47.4018C50.881 47.7124 51.1382 47.9525 51.4584 48.1224C51.7787 48.2873 52.1232 48.3698 52.4919 48.3698C52.6326 48.3698 52.7612 48.3577 52.8777 48.3334C52.999 48.3092 53.1227 48.2728 53.2488 48.2243L53.3944 48.6609C53.2488 48.7143 53.1057 48.7556 52.965 48.7847C52.8243 48.8186 52.6666 48.8356 52.4919 48.8356C52.0358 48.8356 51.6113 48.7313 51.2183 48.5227C50.8301 48.314 50.5171 48.0181 50.2794 47.6347C50.0465 47.2514 49.93 46.7978 49.93 46.2737V34.7743ZM63.5765 44.9637V37.4527H64.0423V48.6318H63.5765V46.856H63.5182C63.2562 47.4382 62.8244 47.904 62.2227 48.2534C61.6259 48.6027 60.9418 48.7774 60.1703 48.7774C59.4231 48.7774 58.7632 48.6149 58.1907 48.2898C57.6181 47.9647 57.1693 47.5159 56.8442 46.9433C56.5191 46.3708 56.3566 45.7109 56.3566 44.9637V37.4527H56.8224V44.9637C56.8224 45.9535 57.1329 46.7589 57.754 47.38C58.3751 48.0011 59.1805 48.3116 60.1703 48.3116C60.8302 48.3116 61.4149 48.1685 61.9243 47.8822C62.4387 47.5959 62.8414 47.2005 63.1325 46.6959C63.4285 46.1912 63.5765 45.6139 63.5765 44.9637ZM68.0052 48.6318V37.4527H68.471V39.2285H68.5292C68.7912 38.6463 69.2206 38.1805 69.8174 37.8311C70.4191 37.4818 71.1056 37.3071 71.8771 37.3071C71.9354 37.3071 71.9742 37.3071 71.9936 37.3071C72.013 37.3071 72.0518 37.3071 72.11 37.3071V37.7729C72.0518 37.7729 72.013 37.7729 71.9936 37.7729C71.9742 37.7729 71.9354 37.7729 71.8771 37.7729C71.2172 37.7729 70.6301 37.9161 70.1158 38.2023C69.6064 38.4886 69.2036 38.884 68.9077 39.3887C68.6165 39.8933 68.471 40.4707 68.471 41.1208V48.6318H68.0052ZM75.1359 41.1208V48.6318H74.6701V37.4527H75.1359V39.2285H75.1941C75.4561 38.6463 75.8855 38.1805 76.4823 37.8311C77.084 37.4818 77.7706 37.3071 78.542 37.3071C79.2893 37.3071 79.9491 37.4697 80.5217 37.7948C81.0942 38.1198 81.543 38.5687 81.8681 39.1412C82.1932 39.7137 82.3558 40.3736 82.3558 41.1208V48.6318H81.89V41.1208C81.89 40.131 81.5794 39.3256 80.9584 38.7045C80.3373 38.0835 79.5319 37.7729 78.542 37.7729C77.8822 37.7729 77.2951 37.9161 76.7807 38.2023C76.2713 38.4886 75.8686 38.884 75.5726 39.3887C75.2815 39.8933 75.1359 40.4707 75.1359 41.1208ZM93.0145 39.8108L92.5487 39.9272C92.3983 39.442 92.1872 39.0393 91.9155 38.7191C91.6487 38.394 91.3212 38.1514 90.933 37.9913C90.5448 37.8263 90.0936 37.7438 89.5793 37.7438C88.6865 37.7438 87.9635 37.9719 87.4104 38.428C86.8573 38.8792 86.5807 39.476 86.5807 40.2184C86.5807 40.8055 86.7675 41.2979 87.1411 41.6958C87.5196 42.0937 88.0897 42.3872 88.8515 42.5765L90.5982 43.0131C91.4182 43.2169 92.0393 43.5614 92.4614 44.0466C92.8884 44.5318 93.1019 45.1189 93.1019 45.8079C93.1019 46.4144 92.9417 46.9482 92.6215 47.4091C92.3061 47.8701 91.8694 48.2291 91.3115 48.4863C90.7535 48.7386 90.1081 48.8647 89.3755 48.8647C88.3808 48.8647 87.5681 48.6221 86.9373 48.1369C86.3065 47.6517 85.8966 46.9627 85.7073 46.0699L86.1731 45.9535C86.3381 46.7444 86.6899 47.3509 87.2284 47.773C87.7719 48.1903 88.4876 48.3989 89.3755 48.3989C90.3459 48.3989 91.1319 48.1612 91.7336 47.6857C92.3352 47.2102 92.6361 46.5843 92.6361 45.8079C92.6361 45.2305 92.4565 44.7429 92.0975 44.345C91.7384 43.9472 91.1999 43.6585 90.4817 43.4789L88.735 43.0423C87.8762 42.8288 87.2236 42.4794 86.7772 41.9942C86.3357 41.509 86.1149 40.9171 86.1149 40.2184C86.1149 39.6313 86.2605 39.1194 86.5516 38.6827C86.8476 38.2411 87.2551 37.8966 87.7743 37.6492C88.2983 37.4017 88.9 37.278 89.5793 37.278C90.4429 37.278 91.1635 37.4915 91.7409 37.9185C92.3183 38.3406 92.7428 38.9714 93.0145 39.8108Z" fill="white"/>
<path d="M185.171 27.0328C185.171 24.769 187.006 22.9338 189.27 22.9338H320.359C322.623 22.9338 324.458 24.769 324.458 27.0328V55.2309C324.458 57.4947 322.623 59.3299 320.359 59.3299H189.27C187.006 59.3299 185.171 57.4947 185.171 55.2309V27.0328Z" fill="#29292C"/>
<path d="M207.069 35.698H207.395V43.3603C207.392 44.0668 207.271 44.634 207.034 45.062C206.799 45.4865 206.49 45.7956 206.106 45.9892C205.726 46.1794 205.313 46.2745 204.868 46.2745C204.39 46.2745 203.958 46.1828 203.574 45.9994C203.194 45.816 202.892 45.5663 202.668 45.2505C202.447 44.9346 202.338 44.5763 202.342 44.1755H202.668C202.664 44.5151 202.759 44.8191 202.953 45.0874C203.146 45.3524 203.41 45.5629 203.743 45.7192C204.079 45.872 204.454 45.9484 204.868 45.9484C205.249 45.9484 205.606 45.8669 205.938 45.7039C206.275 45.5409 206.546 45.2708 206.754 44.8938C206.961 44.5168 207.066 44.0057 207.069 43.3603V35.698ZM212.363 46.2949C211.935 46.2949 211.539 46.2066 211.176 46.0299C210.816 45.8533 210.525 45.5952 210.304 45.2556C210.087 44.9159 209.978 44.5015 209.978 44.0125C209.978 43.7475 210.021 43.4996 210.106 43.2686C210.191 43.0343 210.34 42.822 210.554 42.6318C210.768 42.4416 211.067 42.2786 211.451 42.1427C211.838 42.0069 212.332 41.9033 212.933 41.8319C213.293 41.7912 213.633 41.7436 213.952 41.6893C214.272 41.6349 214.531 41.5534 214.732 41.4447C214.932 41.3361 215.032 41.1798 215.032 40.976V40.5073C215.032 39.9062 214.83 39.4239 214.426 39.0604C214.022 38.6936 213.484 38.5102 212.811 38.5102C212.261 38.5102 211.78 38.6325 211.369 38.877C210.958 39.1182 210.671 39.4578 210.508 39.896L210.203 39.7737C210.325 39.4476 210.513 39.1657 210.768 38.928C211.023 38.6902 211.325 38.5068 211.675 38.3778C212.025 38.2487 212.403 38.1842 212.811 38.1842C213.208 38.1842 213.563 38.2436 213.876 38.3625C214.192 38.478 214.46 38.641 214.681 38.8516C214.902 39.0587 215.07 39.3033 215.185 39.5852C215.301 39.8671 215.358 40.1745 215.358 40.5073V46.1318H215.032V44.5423H214.992C214.829 44.8955 214.616 45.2046 214.355 45.4695C214.097 45.7311 213.798 45.9348 213.458 46.0809C213.122 46.2235 212.757 46.2949 212.363 46.2949ZM212.363 45.9688C212.859 45.9688 213.309 45.8363 213.713 45.5714C214.117 45.3031 214.438 44.9312 214.676 44.4557C214.913 43.9768 215.032 43.4215 215.032 42.7897V41.6078C214.937 41.6791 214.822 41.7419 214.686 41.7963C214.553 41.8506 214.402 41.8999 214.232 41.944C214.066 41.9848 213.884 42.0204 213.687 42.051C213.49 42.0816 213.28 42.1104 213.056 42.1376C212.356 42.2191 211.806 42.3431 211.405 42.5095C211.004 42.676 210.721 42.8848 210.554 43.1362C210.388 43.3875 210.304 43.6796 210.304 44.0125C210.304 44.6034 210.501 45.0772 210.895 45.4339C211.293 45.7905 211.782 45.9688 212.363 45.9688ZM218.494 40.8741V46.1318H218.168V38.3064H218.494V39.5495H218.535C218.718 39.142 219.019 38.8159 219.437 38.5714C219.858 38.3268 220.338 38.2045 220.878 38.2045C221.402 38.2045 221.863 38.3183 222.264 38.5459C222.665 38.7734 222.979 39.0876 223.207 39.4884C223.434 39.8892 223.548 40.3511 223.548 40.8741V46.1318H223.222V40.8741C223.222 40.1813 223.005 39.6175 222.57 39.1827C222.135 38.748 221.571 38.5306 220.878 38.5306C220.417 38.5306 220.006 38.6308 219.646 38.8312C219.289 39.0316 219.007 39.3084 218.8 39.6616C218.596 40.0148 218.494 40.419 218.494 40.8741ZM234.066 40.7519V41.0779H230.174V40.7519H234.066ZM244.799 35.698H245.125V43.3603C245.122 44.0668 245.001 44.634 244.764 45.062C244.529 45.4865 244.22 45.7956 243.836 45.9892C243.456 46.1794 243.043 46.2745 242.598 46.2745C242.119 46.2745 241.688 46.1828 241.304 45.9994C240.924 45.816 240.622 45.5663 240.397 45.2505C240.177 44.9346 240.068 44.5763 240.071 44.1755H240.397C240.394 44.5151 240.489 44.8191 240.683 45.0874C240.876 45.3524 241.14 45.5629 241.472 45.7192C241.809 45.872 242.184 45.9484 242.598 45.9484C242.979 45.9484 243.335 45.8669 243.668 45.7039C244.004 45.5409 244.276 45.2708 244.483 44.8938C244.691 44.5168 244.796 44.0057 244.799 43.3603V35.698ZM253.19 43.5641V38.3064H253.516V46.1318H253.19V44.8887H253.149C252.966 45.2963 252.664 45.6224 252.242 45.8669C251.825 46.1115 251.346 46.2337 250.806 46.2337C250.283 46.2337 249.821 46.1199 249.42 45.8924C249.019 45.6648 248.705 45.3507 248.478 44.9499C248.25 44.5491 248.136 44.0872 248.136 43.5641V38.3064H248.462V43.5641C248.462 44.257 248.68 44.8208 249.114 45.2556C249.549 45.6903 250.113 45.9077 250.806 45.9077C251.268 45.9077 251.677 45.8075 252.034 45.6071C252.394 45.4067 252.676 45.1299 252.879 44.7767C253.087 44.4234 253.19 44.0192 253.19 43.5641ZM256.616 40.8741V46.1318H256.29V38.3064H256.616V39.5495H256.657C256.84 39.142 257.141 38.8159 257.559 38.5714C257.98 38.3268 258.461 38.2045 259.001 38.2045C259.524 38.2045 259.986 38.3183 260.386 38.5459C260.787 38.7734 261.101 39.0876 261.329 39.4884C261.556 39.8892 261.67 40.3511 261.67 40.8741V46.1318H261.344V40.8741C261.344 40.1813 261.127 39.6175 260.692 39.1827C260.257 38.748 259.693 38.5306 259.001 38.5306C258.539 38.5306 258.128 38.6308 257.768 38.8312C257.411 39.0316 257.129 39.3084 256.922 39.6616C256.718 40.0148 256.616 40.419 256.616 40.8741ZM268.846 35.698V36.615C268.846 36.8935 268.795 37.1907 268.693 37.5066C268.595 37.819 268.449 38.123 268.255 38.4185C268.065 38.7106 267.834 38.9653 267.562 39.1827L267.379 38.9382C267.718 38.6597 267.994 38.3047 268.204 37.8734C268.415 37.4386 268.52 37.0192 268.52 36.615V35.698H268.846ZM270.66 46.1318V45.8669L274.002 41.9135C274.525 41.2953 274.932 40.779 275.225 40.3647C275.517 39.9469 275.722 39.5767 275.841 39.254C275.96 38.928 276.019 38.5917 276.019 38.2453C276.019 37.7902 275.914 37.3843 275.703 37.0277C275.496 36.671 275.211 36.3908 274.848 36.187C274.488 35.9833 274.077 35.8814 273.615 35.8814C273.132 35.8814 272.708 35.9918 272.341 36.2125C271.974 36.4299 271.687 36.722 271.48 37.0888C271.273 37.4556 271.169 37.8615 271.169 38.3064H270.843C270.843 37.8004 270.96 37.3401 271.195 36.9258C271.432 36.508 271.758 36.1752 272.173 35.9272C272.591 35.6793 273.071 35.5553 273.615 35.5553C274.138 35.5553 274.605 35.6725 275.016 35.9068C275.427 36.1378 275.751 36.4571 275.989 36.8646C276.226 37.2688 276.345 37.729 276.345 38.2453C276.345 38.6291 276.281 38.9959 276.152 39.3457C276.026 39.6956 275.81 40.0862 275.505 40.5175C275.202 40.9489 274.783 41.4821 274.246 42.1172L271.169 45.765V45.8058H276.957V46.1318H270.66ZM279.57 46.1318V45.8669L282.912 41.9135C283.435 41.2953 283.843 40.779 284.135 40.3647C284.427 39.9469 284.633 39.5767 284.752 39.254C284.87 38.928 284.93 38.5917 284.93 38.2453C284.93 37.7902 284.825 37.3843 284.614 37.0277C284.407 36.671 284.122 36.3908 283.758 36.187C283.398 35.9833 282.987 35.8814 282.525 35.8814C282.043 35.8814 281.618 35.9918 281.252 36.2125C280.885 36.4299 280.598 36.722 280.391 37.0888C280.183 37.4556 280.08 37.8615 280.08 38.3064H279.754C279.754 37.8004 279.871 37.3401 280.105 36.9258C280.343 36.508 280.669 36.1752 281.083 35.9272C281.501 35.6793 281.982 35.5553 282.525 35.5553C283.048 35.5553 283.515 35.6725 283.926 35.9068C284.337 36.1378 284.662 36.4571 284.899 36.8646C285.137 37.2688 285.256 37.729 285.256 38.2453C285.256 38.6291 285.191 38.9959 285.062 39.3457C284.937 39.6956 284.721 40.0862 284.415 40.5175C284.113 40.9489 283.694 41.4821 283.157 42.1172L280.08 45.765V45.8058H285.867V46.1318H279.57Z" fill="#898989"/>
<path d="M309.374 39.0208L304.92 43.4751C304.394 44.0011 303.533 44.0011 303.007 43.4751L298.552 39.0208" stroke="#898989" stroke-width="1.02476" stroke-miterlimit="10" stroke-linecap="round" stroke-linejoin="round"/>
<path d="M26.3225 137.311C25.8596 137.311 25.4506 137.211 25.0954 137.01C24.7403 136.809 24.4622 136.531 24.2614 136.176C24.0605 135.821 23.9615 135.413 23.9644 134.953H24.2439C24.241 135.565 24.4302 136.064 24.8116 136.451C25.1959 136.838 25.6995 137.032 26.3225 137.032C26.7912 137.032 27.2046 136.917 27.5627 136.687C27.9208 136.457 28.2003 136.144 28.4011 135.748C28.602 135.352 28.701 134.907 28.6981 134.412C28.6952 133.882 28.5831 133.423 28.3618 133.036C28.1435 132.649 27.8524 132.351 27.4885 132.141C27.1275 131.931 26.733 131.827 26.3051 131.827C25.9528 131.827 25.634 131.894 25.3487 132.027C25.0634 132.161 24.8174 132.333 24.6107 132.543L24.1915 132.473L24.7155 128.246H28.6806V128.525H24.9601L24.5059 132.228H24.5408C24.765 132.022 25.0256 131.857 25.3225 131.735C25.6195 131.61 25.947 131.547 26.3051 131.547C26.7854 131.547 27.2279 131.666 27.6326 131.905C28.0401 132.141 28.3662 132.474 28.6108 132.905C28.8582 133.333 28.9805 133.835 28.9776 134.412C28.9747 134.965 28.8597 135.46 28.6326 135.896C28.4055 136.333 28.0925 136.678 27.6937 136.931C27.2949 137.185 26.8378 137.311 26.3225 137.311ZM33.5922 137.311C33.0245 137.311 32.5355 137.126 32.125 136.757C31.7174 136.387 31.403 135.859 31.1817 135.172C30.9605 134.485 30.8499 133.666 30.8499 132.717C30.8499 131.768 30.9605 130.95 31.1817 130.263C31.403 129.576 31.7174 129.048 32.125 128.678C32.5355 128.308 33.0245 128.123 33.5922 128.123C34.1599 128.123 34.6476 128.308 35.0551 128.678C35.4656 129.048 35.7815 129.576 36.0027 130.263C36.224 130.95 36.3346 131.768 36.3346 132.717C36.3346 133.666 36.224 134.485 36.0027 135.172C35.7815 135.859 35.4656 136.387 35.0551 136.757C34.6476 137.126 34.1599 137.311 33.5922 137.311ZM33.5922 137.032C34.355 137.032 34.9562 136.649 35.3958 135.883C35.8353 135.118 36.0551 134.062 36.0551 132.717C36.0551 131.821 35.9547 131.051 35.7538 130.407C35.5559 129.761 35.2735 129.266 34.9067 128.923C34.5398 128.576 34.1017 128.403 33.5922 128.403C32.8295 128.403 32.2283 128.786 31.7887 129.551C31.3491 130.317 31.1293 131.372 31.1293 132.717C31.1293 133.614 31.2283 134.386 31.4263 135.032C31.6272 135.675 31.911 136.17 32.2778 136.517C32.6475 136.86 33.0857 137.032 33.5922 137.032Z" fill="#898989"/>
<path d="M24.7868 168.909V168.699L28.8917 162.061H29.0664V162.638H28.8568L25.1886 168.594V168.629H30.2891V168.909H24.7868ZM28.8917 171.005V168.821V168.734V162.061H29.1712V171.005H28.8917ZM34.8252 171.127C34.2575 171.127 33.7684 170.942 33.3579 170.572C32.9503 170.203 32.6359 169.674 32.4147 168.987C32.1934 168.3 32.0828 167.482 32.0828 166.533C32.0828 165.584 32.1934 164.766 32.4147 164.079C32.6359 163.392 32.9503 162.863 33.3579 162.494C33.7684 162.124 34.2575 161.939 34.8252 161.939C35.3928 161.939 35.8805 162.124 36.2881 162.494C36.6985 162.863 37.0144 163.392 37.2357 164.079C37.4569 164.766 37.5675 165.584 37.5675 166.533C37.5675 167.482 37.4569 168.3 37.2357 168.987C37.0144 169.674 36.6985 170.203 36.2881 170.572C35.8805 170.942 35.3928 171.127 34.8252 171.127ZM34.8252 170.847C35.5879 170.847 36.1891 170.465 36.6287 169.699C37.0683 168.933 37.2881 167.878 37.2881 166.533C37.2881 165.636 37.1876 164.866 36.9867 164.223C36.7888 163.577 36.5064 163.082 36.1396 162.738C35.7728 162.392 35.3346 162.219 34.8252 162.219C34.0624 162.219 33.4612 162.601 33.0216 163.367C32.582 164.133 32.3622 165.188 32.3622 166.533C32.3622 167.43 32.4612 168.201 32.6592 168.847C32.8601 169.491 33.1439 169.986 33.5107 170.332C33.8805 170.676 34.3186 170.847 34.8252 170.847Z" fill="#898989"/>
<path d="M26.7417 204.943C26.2381 204.943 25.7854 204.842 25.3836 204.638C24.9848 204.434 24.6689 204.155 24.436 203.799C24.2031 203.444 24.0867 203.04 24.0867 202.585H24.3662C24.3662 202.987 24.471 203.345 24.6806 203.66C24.8902 203.971 25.174 204.217 25.5321 204.398C25.8931 204.575 26.2963 204.664 26.7417 204.664C27.2163 204.664 27.6311 204.566 27.9863 204.371C28.3415 204.176 28.618 203.914 28.816 203.585C29.0169 203.256 29.1173 202.894 29.1173 202.498C29.1173 202.07 29.0038 201.695 28.7767 201.371C28.5496 201.048 28.2367 200.798 27.8378 200.62C27.4419 200.44 26.9892 200.35 26.4797 200.35H26.34V200.07H26.4797C26.9281 200.07 27.3313 199.987 27.6893 199.821C28.0474 199.655 28.3313 199.421 28.5409 199.118C28.7505 198.815 28.8553 198.457 28.8553 198.044C28.8553 197.66 28.765 197.316 28.5845 197.013C28.4041 196.711 28.1537 196.472 27.8334 196.297C27.5161 196.122 27.1464 196.035 26.7243 196.035C26.308 196.035 25.9382 196.124 25.6151 196.301C25.2919 196.476 25.0372 196.721 24.8509 197.035C24.6675 197.347 24.5758 197.706 24.5758 198.114H24.2963C24.2963 197.654 24.4011 197.246 24.6107 196.891C24.8203 196.536 25.1071 196.258 25.471 196.057C25.8378 195.856 26.2556 195.756 26.7243 195.756C27.193 195.756 27.6078 195.856 27.9688 196.057C28.3327 196.255 28.618 196.527 28.8247 196.874C29.0314 197.217 29.1348 197.607 29.1348 198.044C29.1348 198.568 28.9848 199.018 28.685 199.393C28.3851 199.769 27.9819 200.029 27.4754 200.175V200.21C28.0605 200.358 28.5263 200.635 28.8728 201.04C29.2221 201.444 29.3968 201.93 29.3968 202.498C29.3968 202.955 29.2832 203.369 29.0562 203.738C28.832 204.108 28.5205 204.402 28.1217 204.62C27.7228 204.836 27.2628 204.943 26.7417 204.943ZM34.1086 204.943C33.5409 204.943 33.0518 204.759 32.6414 204.389C32.2338 204.019 31.9194 203.491 31.6981 202.804C31.4769 202.117 31.3662 201.299 31.3662 200.35C31.3662 199.401 31.4769 198.582 31.6981 197.895C31.9194 197.208 32.2338 196.68 32.6414 196.31C33.0518 195.94 33.5409 195.756 34.1086 195.756C34.6763 195.756 35.1639 195.94 35.5715 196.31C35.982 196.68 36.2979 197.208 36.5191 197.895C36.7404 198.582 36.851 199.401 36.851 200.35C36.851 201.299 36.7404 202.117 36.5191 202.804C36.2979 203.491 35.982 204.019 35.5715 204.389C35.1639 204.759 34.6763 204.943 34.1086 204.943ZM34.1086 204.664C34.8714 204.664 35.4725 204.281 35.9121 203.516C36.3517 202.75 36.5715 201.695 36.5715 200.35C36.5715 199.453 36.4711 198.683 36.2702 198.04C36.0723 197.393 35.7899 196.898 35.423 196.555C35.0562 196.208 34.6181 196.035 34.1086 196.035C33.3459 196.035 32.7447 196.418 32.3051 197.184C31.8655 197.949 31.6457 199.005 31.6457 200.35C31.6457 201.246 31.7447 202.018 31.9427 202.664C32.1435 203.307 32.4274 203.802 32.7942 204.149C33.1639 204.492 33.6021 204.664 34.1086 204.664Z" fill="#898989"/>
<path d="M24.0692 238.639V238.412L26.9339 235.023C27.3822 234.493 27.7316 234.051 27.9819 233.695C28.2323 233.337 28.4084 233.02 28.5103 232.743C28.6122 232.464 28.6632 232.176 28.6632 231.879C28.6632 231.489 28.5729 231.141 28.3924 230.835C28.2148 230.529 27.9703 230.289 27.6588 230.115C27.3502 229.94 26.9979 229.853 26.602 229.853C26.1886 229.853 25.8247 229.947 25.5103 230.136C25.1959 230.323 24.9499 230.573 24.7723 230.888C24.5947 231.202 24.5059 231.55 24.5059 231.931H24.2264C24.2264 231.497 24.3269 231.103 24.5277 230.748C24.7315 230.39 25.011 230.104 25.3662 229.892C25.7243 229.679 26.1362 229.573 26.602 229.573C27.0503 229.573 27.4506 229.674 27.8029 229.874C28.1551 230.072 28.4332 230.346 28.637 230.695C28.8407 231.042 28.9426 231.436 28.9426 231.879C28.9426 232.208 28.8873 232.522 28.7767 232.822C28.669 233.122 28.4841 233.457 28.2221 233.826C27.963 234.196 27.6035 234.653 27.1435 235.198L24.5059 238.324V238.359H29.4667V238.639H24.0692ZM34.2047 238.761C33.637 238.761 33.1479 238.576 32.7374 238.206C32.3299 237.837 32.0154 237.308 31.7942 236.621C31.5729 235.934 31.4623 235.116 31.4623 234.167C31.4623 233.218 31.5729 232.4 31.7942 231.713C32.0154 231.026 32.3299 230.497 32.7374 230.128C33.1479 229.758 33.637 229.573 34.2047 229.573C34.7724 229.573 35.26 229.758 35.6676 230.128C36.0781 230.497 36.3939 231.026 36.6152 231.713C36.8364 232.4 36.9471 233.218 36.9471 234.167C36.9471 235.116 36.8364 235.934 36.6152 236.621C36.3939 237.308 36.0781 237.837 35.6676 238.206C35.26 238.576 34.7724 238.761 34.2047 238.761ZM34.2047 238.481C34.9674 238.481 35.5686 238.099 36.0082 237.333C36.4478 236.567 36.6676 235.512 36.6676 234.167C36.6676 233.27 36.5672 232.5 36.3663 231.857C36.1683 231.211 35.8859 230.716 35.5191 230.372C35.1523 230.026 34.7142 229.853 34.2047 229.853C33.4419 229.853 32.8408 230.235 32.4012 231.001C31.9616 231.767 31.7418 232.822 31.7418 234.167C31.7418 235.064 31.8408 235.835 32.0387 236.481C32.2396 237.125 32.5235 237.62 32.8903 237.966C33.26 238.31 33.6981 238.481 34.2047 238.481Z" fill="#898989"/>
<path d="M30.1165 263.513V272.456H29.8371V263.81H29.7847L27.8632 265.085V264.753L29.7323 263.513H30.1165ZM35.6308 272.578C35.0631 272.578 34.574 272.394 34.1635 272.024C33.7559 271.654 33.4415 271.126 33.2203 270.439C32.999 269.752 32.8884 268.934 32.8884 267.984C32.8884 267.035 32.999 266.217 33.2203 265.53C33.4415 264.843 33.7559 264.315 34.1635 263.945C34.574 263.575 35.0631 263.391 35.6308 263.391C36.1985 263.391 36.6861 263.575 37.0937 263.945C37.5042 264.315 37.82 264.843 38.0413 265.53C38.2625 266.217 38.3732 267.035 38.3732 267.984C38.3732 268.934 38.2625 269.752 38.0413 270.439C37.82 271.126 37.5042 271.654 37.0937 272.024C36.6861 272.394 36.1985 272.578 35.6308 272.578ZM35.6308 272.299C36.3935 272.299 36.9947 271.916 37.4343 271.15C37.8739 270.385 38.0937 269.329 38.0937 267.984C38.0937 267.088 37.9933 266.318 37.7924 265.674C37.5944 265.028 37.312 264.533 36.9452 264.19C36.5784 263.843 36.1402 263.67 35.6308 263.67C34.868 263.67 34.2669 264.053 33.8273 264.818C33.3877 265.584 33.1679 266.639 33.1679 267.984C33.1679 268.881 33.2669 269.653 33.4648 270.299C33.6657 270.942 33.9495 271.437 34.3164 271.784C34.6861 272.127 35.1242 272.299 35.6308 272.299Z" fill="#898989"/>
<path d="M27.5292 103.493C27.1508 103.493 26.8 103.407 26.4768 103.235C26.1537 103.064 25.8713 102.806 25.6296 102.462C25.3909 102.116 25.2046 101.681 25.0707 101.157C24.9397 100.633 24.8742 100.02 24.8742 99.3183C24.8742 98.7157 24.9164 98.1189 25.0008 97.5279C25.0882 96.934 25.2337 96.3939 25.4375 95.9078C25.6413 95.4216 25.9208 95.0329 26.2759 94.7418C26.6311 94.4507 27.078 94.3051 27.6166 94.3051C28.0591 94.3051 28.4448 94.4056 28.7738 94.6064C29.1028 94.8044 29.3633 95.081 29.5555 95.4362C29.7476 95.7884 29.8582 96.1974 29.8873 96.6632H29.6079C29.5642 96.049 29.3677 95.5497 29.0183 95.1654C28.6719 94.7782 28.2046 94.5846 27.6166 94.5846C26.8014 94.5846 26.1872 95.0024 25.7738 95.8379C25.3604 96.6705 25.1537 97.8714 25.1537 99.4406H25.1886C25.2847 99.1436 25.4462 98.8801 25.6733 98.6502C25.9033 98.4173 26.1755 98.2353 26.4899 98.1043C26.8043 97.9704 27.1333 97.9034 27.4768 97.9034C27.9455 97.9034 28.3735 98.0257 28.7607 98.2702C29.1508 98.5148 29.4623 98.8481 29.6952 99.2703C29.9281 99.6924 30.0445 100.168 30.0445 100.698C30.0445 101.193 29.9383 101.653 29.7258 102.078C29.5162 102.503 29.2221 102.845 28.8437 103.104C28.4681 103.363 28.03 103.493 27.5292 103.493ZM27.5292 103.214C27.9601 103.214 28.3429 103.1 28.6777 102.873C29.0154 102.646 29.2803 102.342 29.4725 101.96C29.6675 101.579 29.7651 101.158 29.7651 100.698C29.7651 100.227 29.6617 99.8016 29.455 99.4231C29.2512 99.0417 28.9747 98.7404 28.6253 98.5192C28.2789 98.295 27.8902 98.1829 27.4594 98.1829C27.1187 98.1829 26.8029 98.2542 26.5118 98.3969C26.2206 98.5366 25.9717 98.7302 25.765 98.9777C25.5612 99.2222 25.4157 99.5031 25.3283 99.8205C25.241 100.138 25.2294 100.471 25.2934 100.82C25.3924 101.345 25.5467 101.784 25.7563 102.139C25.9688 102.494 26.225 102.762 26.5249 102.943C26.8276 103.123 27.1624 103.214 27.5292 103.214ZM34.669 103.493C34.1013 103.493 33.6123 103.308 33.2018 102.938C32.7942 102.569 32.4798 102.04 32.2585 101.353C32.0373 100.666 31.9267 99.8481 31.9267 98.8991C31.9267 97.95 32.0373 97.1319 32.2585 96.4449C32.4798 95.7578 32.7942 95.2295 33.2018 94.8597C33.6123 94.49 34.1013 94.3051 34.669 94.3051C35.2367 94.3051 35.7244 94.49 36.1319 94.8597C36.5424 95.2295 36.8583 95.7578 37.0795 96.4449C37.3008 97.1319 37.4114 97.95 37.4114 98.8991C37.4114 99.8481 37.3008 100.666 37.0795 101.353C36.8583 102.04 36.5424 102.569 36.1319 102.938C35.7244 103.308 35.2367 103.493 34.669 103.493ZM34.669 103.214C35.4318 103.214 36.033 102.831 36.4726 102.065C36.9121 101.299 37.1319 100.244 37.1319 98.8991C37.1319 98.0024 37.0315 97.2324 36.8306 96.589C36.6327 95.9427 36.3503 95.4478 35.9835 95.1043C35.6166 94.7578 35.1785 94.5846 34.669 94.5846C33.9063 94.5846 33.3051 94.9674 32.8655 95.7331C32.4259 96.4988 32.2061 97.5541 32.2061 98.8991C32.2061 99.7957 32.3051 100.567 32.5031 101.214C32.704 101.857 32.9878 102.352 33.3546 102.698C33.7243 103.042 34.1625 103.214 34.669 103.214Z" fill="#898989"/>
<line x1="52.5027" y1="99.3386" x2="330.212" y2="99.3386" stroke="#898989" stroke-opacity="0.2" stroke-width="0.512378" stroke-dasharray="7.17 7.17"/>
<line x1="52.5027" y1="166.973" x2="330.212" y2="166.973" stroke="#898989" stroke-opacity="0.2" stroke-width="0.512378" stroke-dasharray="7.17 7.17"/>
<line x1="52.5027" y1="133.155" x2="330.212" y2="133.155" stroke="#898989" stroke-opacity="0.2" stroke-width="0.512378" stroke-dasharray="7.17 7.17"/>
<line x1="52.5027" y1="200.788" x2="330.212" y2="200.788" stroke="#898989" stroke-opacity="0.2" stroke-width="0.512378" stroke-dasharray="7.17 7.17"/>
<line x1="52.5027" y1="234.606" x2="330.212" y2="234.606" stroke="#898989" stroke-opacity="0.2" stroke-width="0.512378" stroke-dasharray="7.17 7.17"/>
<line x1="52.5027" y1="268.423" x2="330.212" y2="268.423" stroke="#898989" stroke-opacity="0.2" stroke-width="0.512378" stroke-dasharray="7.17 7.17"/>
<path d="M69.5156 280.934H69.7951V287.501C69.7922 288.107 69.6889 288.593 69.4851 288.96C69.2842 289.324 69.0193 289.589 68.6903 289.755C68.3642 289.918 68.0105 289.999 67.6292 289.999C67.2187 289.999 66.8489 289.92 66.52 289.763C66.1939 289.606 65.9348 289.392 65.7427 289.121C65.5534 288.851 65.4603 288.543 65.4632 288.2H65.7427C65.7398 288.491 65.8213 288.752 65.9872 288.982C66.1532 289.209 66.3788 289.389 66.6641 289.523C66.9523 289.654 67.274 289.72 67.6292 289.72C67.9552 289.72 68.2609 289.65 68.5462 289.51C68.8344 289.37 69.0673 289.139 69.2449 288.816C69.4225 288.493 69.5127 288.054 69.5156 287.501V280.934ZM74.0528 290.017C73.686 290.017 73.3468 289.941 73.0353 289.789C72.7267 289.638 72.4778 289.417 72.2886 289.126C72.1023 288.835 72.0091 288.479 72.0091 288.06C72.0091 287.833 72.0455 287.621 72.1183 287.423C72.1911 287.222 72.3192 287.04 72.5026 286.877C72.686 286.714 72.9422 286.574 73.2711 286.458C73.603 286.341 74.0266 286.252 74.5419 286.191C74.8505 286.156 75.1416 286.116 75.4153 286.069C75.6889 286.022 75.9116 285.952 76.0834 285.859C76.2552 285.766 76.341 285.632 76.341 285.458V285.056C76.341 284.541 76.1678 284.127 75.8214 283.816C75.4749 283.501 75.0135 283.344 74.4371 283.344C73.9655 283.344 73.5535 283.449 73.2013 283.658C72.849 283.865 72.603 284.156 72.4633 284.532L72.2013 284.427C72.3061 284.148 72.4676 283.906 72.686 283.702C72.9043 283.498 73.1634 283.341 73.4633 283.23C73.7631 283.12 74.0877 283.065 74.4371 283.065C74.7777 283.065 75.0819 283.115 75.3498 283.217C75.6205 283.316 75.8505 283.456 76.0397 283.637C76.229 283.814 76.3731 284.024 76.472 284.265C76.571 284.507 76.6205 284.771 76.6205 285.056V289.877H76.341V288.514H76.3061C76.1664 288.817 75.9844 289.082 75.7602 289.309C75.539 289.533 75.2828 289.708 74.9917 289.833C74.7035 289.955 74.3905 290.017 74.0528 290.017ZM74.0528 289.737C74.4778 289.737 74.8636 289.624 75.21 289.396C75.5565 289.166 75.8316 288.848 76.0354 288.44C76.2391 288.03 76.341 287.554 76.341 287.012V285.999C76.2595 286.06 76.1605 286.114 76.0441 286.161C75.9306 286.207 75.801 286.249 75.6554 286.287C75.5128 286.322 75.357 286.353 75.1882 286.379C75.0193 286.405 74.8388 286.43 74.6467 286.453C74.047 286.523 73.5754 286.629 73.2318 286.772C72.8883 286.915 72.6452 287.094 72.5026 287.309C72.3599 287.525 72.2886 287.775 72.2886 288.06C72.2886 288.567 72.4574 288.973 72.7952 289.279C73.1358 289.584 73.555 289.737 74.0528 289.737ZM79.3083 285.37V289.877H79.0288V283.169H79.3083V284.235H79.3433C79.5005 283.886 79.7581 283.606 80.1162 283.396C80.4772 283.187 80.8891 283.082 81.352 283.082C81.8003 283.082 82.1963 283.18 82.5398 283.375C82.8833 283.57 83.1526 283.839 83.3477 284.182C83.5427 284.526 83.6402 284.922 83.6402 285.37V289.877H83.3608V285.37C83.3608 284.776 83.1744 284.293 82.8018 283.92C82.4292 283.548 81.9459 283.361 81.352 283.361C80.9561 283.361 80.6038 283.447 80.2952 283.619C79.9895 283.791 79.7479 284.028 79.5703 284.331C79.3957 284.634 79.3083 284.98 79.3083 285.37Z" fill="#898989"/>
<path d="M113.84 289.877V280.934H118.644V281.213H114.12V285.265H118.225V285.545H114.12V289.877H113.84ZM122.847 290.017C122.262 290.017 121.75 289.864 121.31 289.558C120.873 289.252 120.534 288.838 120.292 288.313C120.051 287.789 119.93 287.198 119.93 286.541C119.93 285.883 120.051 285.292 120.292 284.768C120.537 284.244 120.869 283.829 121.288 283.523C121.707 283.217 122.18 283.065 122.707 283.065C123.097 283.065 123.458 283.148 123.79 283.313C124.125 283.479 124.416 283.709 124.664 284.003C124.911 284.297 125.103 284.637 125.24 285.021C125.38 285.402 125.45 285.81 125.45 286.244V286.523H120.07V286.244H125.17C125.17 285.705 125.06 285.217 124.838 284.781C124.617 284.341 124.32 283.992 123.948 283.733C123.575 283.474 123.162 283.344 122.707 283.344C122.247 283.344 121.831 283.481 121.458 283.754C121.086 284.028 120.787 284.401 120.563 284.872C120.339 285.344 120.221 285.877 120.21 286.471V286.506C120.21 287.091 120.311 287.629 120.515 288.121C120.722 288.61 121.022 289.002 121.415 289.296C121.808 289.59 122.285 289.737 122.847 289.737C123.26 289.737 123.607 289.664 123.886 289.519C124.169 289.373 124.394 289.206 124.563 289.017C124.735 288.827 124.862 288.666 124.943 288.532L125.17 288.689C125.071 288.858 124.923 289.046 124.725 289.252C124.527 289.459 124.274 289.638 123.965 289.789C123.656 289.941 123.284 290.017 122.847 290.017ZM127.639 289.877V280.934H127.918V284.881H127.953C128.069 284.509 128.238 284.187 128.46 283.916C128.681 283.642 128.941 283.433 129.241 283.287C129.541 283.139 129.869 283.065 130.224 283.065C130.748 283.065 131.203 283.217 131.591 283.523C131.978 283.829 132.278 284.244 132.49 284.768C132.703 285.292 132.809 285.883 132.809 286.541C132.809 287.201 132.703 287.794 132.49 288.318C132.281 288.842 131.982 289.257 131.595 289.562C131.211 289.865 130.754 290.017 130.224 290.017C129.866 290.017 129.537 289.942 129.237 289.794C128.94 289.645 128.682 289.436 128.464 289.165C128.246 288.891 128.075 288.57 127.953 288.2H127.918V289.877H127.639ZM127.918 286.541C127.918 287.146 128.011 287.69 128.198 288.174C128.384 288.654 128.649 289.035 128.992 289.318C129.339 289.597 129.749 289.737 130.224 289.737C130.698 289.737 131.107 289.597 131.451 289.318C131.797 289.035 132.064 288.654 132.25 288.174C132.436 287.69 132.529 287.146 132.529 286.541C132.529 285.935 132.435 285.392 132.246 284.912C132.059 284.428 131.793 284.047 131.447 283.768C131.103 283.485 130.695 283.344 130.224 283.344C129.752 283.344 129.343 283.485 128.997 283.768C128.653 284.047 128.387 284.428 128.198 284.912C128.011 285.392 127.918 285.935 127.918 286.541Z" fill="#898989"/>
<path d="M162.484 280.934H162.729L166.379 289.458H166.414L170.065 280.934H170.31V289.877H170.03V281.807H169.995L166.537 289.877H166.257L162.799 281.807H162.764V289.877H162.484V280.934ZM174.567 290.017C174.2 290.017 173.861 289.941 173.55 289.789C173.241 289.638 172.992 289.417 172.803 289.126C172.617 288.835 172.524 288.479 172.524 288.06C172.524 287.833 172.56 287.621 172.633 287.423C172.705 287.222 172.834 287.04 173.017 286.877C173.2 286.714 173.457 286.574 173.786 286.458C174.117 286.341 174.541 286.252 175.056 286.191C175.365 286.156 175.656 286.116 175.93 286.069C176.203 286.022 176.426 285.952 176.598 285.859C176.77 285.766 176.855 285.632 176.855 285.458V285.056C176.855 284.541 176.682 284.127 176.336 283.816C175.989 283.501 175.528 283.344 174.951 283.344C174.48 283.344 174.068 283.449 173.716 283.658C173.363 283.865 173.117 284.156 172.978 284.532L172.716 284.427C172.82 284.148 172.982 283.906 173.2 283.702C173.419 283.498 173.678 283.341 173.978 283.23C174.278 283.12 174.602 283.065 174.951 283.065C175.292 283.065 175.596 283.115 175.864 283.217C176.135 283.316 176.365 283.456 176.554 283.637C176.743 283.814 176.887 284.024 176.986 284.265C177.085 284.507 177.135 284.771 177.135 285.056V289.877H176.855V288.514H176.821C176.681 288.817 176.499 289.082 176.275 289.309C176.053 289.533 175.797 289.708 175.506 289.833C175.218 289.955 174.905 290.017 174.567 290.017ZM174.567 289.737C174.992 289.737 175.378 289.624 175.724 289.396C176.071 289.166 176.346 288.848 176.55 288.44C176.754 288.03 176.855 287.554 176.855 287.012V285.999C176.774 286.06 176.675 286.114 176.558 286.161C176.445 286.207 176.315 286.249 176.17 286.287C176.027 286.322 175.871 286.353 175.703 286.379C175.534 286.405 175.353 286.43 175.161 286.453C174.561 286.523 174.09 286.629 173.746 286.772C173.403 286.915 173.16 287.094 173.017 287.309C172.874 287.525 172.803 287.775 172.803 288.06C172.803 288.567 172.972 288.973 173.31 289.279C173.65 289.584 174.069 289.737 174.567 289.737ZM179.543 289.877V283.169H179.823V284.235H179.858C180.015 283.886 180.273 283.606 180.631 283.396C180.992 283.187 181.404 283.082 181.866 283.082C181.901 283.082 181.925 283.082 181.936 283.082C181.948 283.082 181.971 283.082 182.006 283.082V283.361C181.971 283.361 181.948 283.361 181.936 283.361C181.925 283.361 181.901 283.361 181.866 283.361C181.47 283.361 181.118 283.447 180.81 283.619C180.504 283.791 180.262 284.028 180.085 284.331C179.91 284.634 179.823 284.98 179.823 285.37V289.877H179.543Z" fill="#898989"/>
<path d="M210.429 289.877H210.132L213.329 280.934H213.713L216.909 289.877H216.613L213.538 281.283H213.503L210.429 289.877ZM211.442 286.575H215.599V286.855H211.442V286.575ZM218.496 292.392V283.169H218.775V284.881H218.81C218.932 284.509 219.103 284.187 219.321 283.916C219.539 283.645 219.797 283.436 220.094 283.287C220.394 283.139 220.723 283.065 221.081 283.065C221.611 283.065 222.068 283.217 222.452 283.523C222.839 283.826 223.138 284.239 223.347 284.763C223.56 285.287 223.666 285.88 223.666 286.541C223.666 287.198 223.56 287.789 223.347 288.313C223.135 288.838 222.835 289.252 222.448 289.558C222.061 289.864 221.605 290.017 221.081 290.017C220.726 290.017 220.398 289.944 220.098 289.798C219.798 289.65 219.538 289.44 219.317 289.169C219.095 288.896 218.927 288.573 218.81 288.2H218.775V292.392H218.496ZM218.775 286.541C218.775 287.146 218.868 287.69 219.055 288.174C219.244 288.654 219.51 289.035 219.854 289.318C220.2 289.597 220.609 289.737 221.081 289.737C221.553 289.737 221.96 289.597 222.304 289.318C222.65 289.035 222.916 288.654 223.103 288.174C223.292 287.69 223.387 287.146 223.387 286.541C223.387 285.935 223.293 285.392 223.107 284.912C222.921 284.428 222.654 284.047 222.308 283.768C221.964 283.485 221.555 283.344 221.081 283.344C220.606 283.344 220.196 283.485 219.849 283.768C219.506 284.047 219.241 284.428 219.055 284.912C218.868 285.392 218.775 285.935 218.775 286.541ZM225.641 289.877V283.169H225.92V284.235H225.955C226.113 283.886 226.37 283.606 226.728 283.396C227.089 283.187 227.501 283.082 227.964 283.082C227.999 283.082 228.022 283.082 228.034 283.082C228.046 283.082 228.069 283.082 228.104 283.082V283.361C228.069 283.361 228.046 283.361 228.034 283.361C228.022 283.361 227.999 283.361 227.964 283.361C227.568 283.361 227.216 283.447 226.907 283.619C226.602 283.791 226.36 284.028 226.182 284.331C226.008 284.634 225.92 284.98 225.92 285.37V289.877H225.641Z" fill="#898989"/>
<path d="M256.771 280.934H257.016L260.667 289.458H260.702L264.352 280.934H264.597V289.877H264.317V281.807H264.282L260.824 289.877H260.544L257.086 281.807H257.051V289.877H256.771V280.934ZM268.855 290.017C268.488 290.017 268.149 289.941 267.837 289.789C267.528 289.638 267.28 289.417 267.09 289.126C266.904 288.835 266.811 288.479 266.811 288.06C266.811 287.833 266.847 287.621 266.92 287.423C266.993 287.222 267.121 287.04 267.304 286.877C267.488 286.714 267.744 286.574 268.073 286.458C268.405 286.341 268.828 286.252 269.344 286.191C269.652 286.156 269.943 286.116 270.217 286.069C270.491 286.022 270.713 285.952 270.885 285.859C271.057 285.766 271.143 285.632 271.143 285.458V285.056C271.143 284.541 270.97 284.127 270.623 283.816C270.277 283.501 269.815 283.344 269.239 283.344C268.767 283.344 268.355 283.449 268.003 283.658C267.651 283.865 267.405 284.156 267.265 284.532L267.003 284.427C267.108 284.148 267.269 283.906 267.488 283.702C267.706 283.498 267.965 283.341 268.265 283.23C268.565 283.12 268.889 283.065 269.239 283.065C269.579 283.065 269.884 283.115 270.151 283.217C270.422 283.316 270.652 283.456 270.841 283.637C271.031 283.814 271.175 284.024 271.274 284.265C271.373 284.507 271.422 284.771 271.422 285.056V289.877H271.143V288.514H271.108C270.968 288.817 270.786 289.082 270.562 289.309C270.341 289.533 270.085 289.708 269.793 289.833C269.505 289.955 269.192 290.017 268.855 290.017ZM268.855 289.737C269.28 289.737 269.665 289.624 270.012 289.396C270.358 289.166 270.633 288.848 270.837 288.44C271.041 288.03 271.143 287.554 271.143 287.012V285.999C271.061 286.06 270.962 286.114 270.846 286.161C270.732 286.207 270.603 286.249 270.457 286.287C270.314 286.322 270.159 286.353 269.99 286.379C269.821 286.405 269.641 286.43 269.448 286.453C268.849 286.523 268.377 286.629 268.034 286.772C267.69 286.915 267.447 287.094 267.304 287.309C267.162 287.525 267.09 287.775 267.09 288.06C267.09 288.567 267.259 288.973 267.597 289.279C267.937 289.584 268.357 289.737 268.855 289.737ZM273.896 292.392C273.783 292.392 273.662 292.376 273.534 292.344C273.405 292.315 273.276 292.273 273.145 292.217L273.25 291.973C273.538 292.095 273.8 292.139 274.036 292.104C274.275 292.072 274.484 291.963 274.665 291.776C274.848 291.59 274.999 291.33 275.119 290.995L275.477 289.999L273.031 283.169H273.328L275.599 289.527H275.634L277.905 283.169H278.202L275.381 291.1C275.282 291.379 275.158 291.615 275.01 291.807C274.861 291.999 274.692 292.145 274.503 292.244C274.317 292.343 274.114 292.392 273.896 292.392Z" fill="#898989"/>
<path d="M310.734 280.934H311.013V287.501C311.01 288.107 310.907 288.593 310.703 288.96C310.502 289.324 310.237 289.589 309.908 289.755C309.582 289.918 309.229 289.999 308.847 289.999C308.437 289.999 308.067 289.92 307.738 289.763C307.412 289.606 307.153 289.392 306.961 289.121C306.772 288.851 306.678 288.543 306.681 288.2H306.961C306.958 288.491 307.039 288.752 307.205 288.982C307.371 289.209 307.597 289.389 307.882 289.523C308.17 289.654 308.492 289.72 308.847 289.72C309.173 289.72 309.479 289.65 309.764 289.51C310.053 289.37 310.285 289.139 310.463 288.816C310.641 288.493 310.731 288.054 310.734 287.501V280.934ZM317.926 287.676V283.169H318.205V289.877H317.926V288.811H317.891C317.734 289.161 317.475 289.44 317.114 289.65C316.756 289.859 316.345 289.964 315.882 289.964C315.434 289.964 315.038 289.867 314.695 289.672C314.351 289.477 314.082 289.207 313.887 288.864C313.692 288.52 313.594 288.124 313.594 287.676V283.169H313.874V287.676C313.874 288.27 314.06 288.753 314.433 289.126C314.805 289.498 315.288 289.685 315.882 289.685C316.278 289.685 316.629 289.599 316.935 289.427C317.243 289.255 317.485 289.018 317.66 288.715C317.837 288.412 317.926 288.066 317.926 287.676ZM320.863 285.37V289.877H320.583V283.169H320.863V284.235H320.898C321.055 283.886 321.312 283.606 321.671 283.396C322.032 283.187 322.444 283.082 322.906 283.082C323.355 283.082 323.751 283.18 324.094 283.375C324.438 283.57 324.707 283.839 324.902 284.182C325.097 284.526 325.195 284.922 325.195 285.37V289.877H324.915V285.37C324.915 284.776 324.729 284.293 324.356 283.92C323.984 283.548 323.5 283.361 322.906 283.361C322.51 283.361 322.158 283.447 321.85 283.619C321.544 283.791 321.302 284.028 321.125 284.331C320.95 284.634 320.863 284.98 320.863 285.37Z" fill="#898989"/>
<rect x="64.8007" y="167.229" width="20.4951" height="101.451" rx="4.09902" fill="url(#paint1_linear_86_16157)" fill-opacity="0.4"/>
<rect x="113.987" y="201.045" width="20.4951" height="67.6339" rx="4.09902" fill="url(#paint2_linear_86_16157)" fill-opacity="0.4"/>
<rect x="162.154" y="191.822" width="20.4951" height="76.8567" rx="4.09902" fill="url(#paint3_linear_86_16157)" fill-opacity="0.4"/>
<path d="M211.343 152.883C211.343 150.619 213.178 148.784 215.442 148.784H227.739C230.003 148.784 231.838 150.619 231.838 152.883V268.68H211.343V152.883Z" fill="url(#paint4_linear_86_16157)"/>
<rect x="197.509" y="108.306" width="50.4704" height="35.3713" rx="7.68567" fill="#29292C"/>
<rect x="197.509" y="108.306" width="50.4704" height="35.3713" rx="7.68567" stroke="#29292C" stroke-width="1.02476"/>
<path d="M208.029 128.954V127.68L212.538 120.558H213.542V122.432H212.905L209.68 127.537V127.619H215.86V128.954H208.029ZM212.976 130.991V128.566L212.986 127.986V120.558H214.479V130.991H212.976ZM221.268 131.134C220.568 131.134 219.943 131.013 219.393 130.772C218.846 130.531 218.413 130.197 218.094 129.769C217.778 129.337 217.608 128.838 217.584 128.271H219.184C219.204 128.58 219.308 128.848 219.495 129.076C219.685 129.3 219.933 129.473 220.239 129.595C220.544 129.718 220.884 129.779 221.257 129.779C221.668 129.779 222.032 129.708 222.348 129.565C222.667 129.422 222.917 129.224 223.097 128.969C223.277 128.711 223.367 128.413 223.367 128.077C223.367 127.727 223.277 127.42 223.097 127.155C222.92 126.887 222.66 126.676 222.317 126.523C221.977 126.371 221.567 126.294 221.084 126.294H220.203V125.01H221.084C221.471 125.01 221.811 124.941 222.103 124.801C222.399 124.662 222.63 124.469 222.796 124.221C222.962 123.969 223.046 123.675 223.046 123.339C223.046 123.017 222.973 122.736 222.827 122.499C222.684 122.257 222.48 122.069 222.215 121.933C221.954 121.797 221.645 121.729 221.288 121.729C220.948 121.729 220.631 121.792 220.335 121.918C220.043 122.04 219.805 122.217 219.622 122.448C219.439 122.675 219.34 122.949 219.327 123.268H217.803C217.82 122.704 217.987 122.208 218.303 121.78C218.622 121.352 219.043 121.018 219.566 120.777C220.089 120.535 220.67 120.415 221.308 120.415C221.977 120.415 222.555 120.546 223.041 120.807C223.53 121.065 223.907 121.41 224.172 121.841C224.44 122.273 224.572 122.745 224.569 123.258C224.572 123.842 224.409 124.338 224.08 124.745C223.754 125.153 223.319 125.426 222.776 125.566V125.647C223.469 125.752 224.005 126.027 224.386 126.472C224.769 126.917 224.96 127.469 224.956 128.128C224.96 128.702 224.8 129.217 224.477 129.672C224.158 130.127 223.722 130.485 223.168 130.747C222.614 131.005 221.981 131.134 221.268 131.134ZM232.328 129.035V128.485C232.328 128.091 232.41 127.731 232.573 127.405C232.739 127.075 232.98 126.812 233.296 126.615C233.615 126.415 234.001 126.314 234.453 126.314C234.915 126.314 235.302 126.413 235.614 126.61C235.927 126.807 236.163 127.07 236.322 127.4C236.485 127.729 236.567 128.091 236.567 128.485V129.035C236.567 129.429 236.485 129.791 236.322 130.12C236.159 130.446 235.92 130.709 235.604 130.91C235.292 131.107 234.908 131.205 234.453 131.205C233.994 131.205 233.607 131.107 233.291 130.91C232.975 130.709 232.736 130.446 232.573 130.12C232.41 129.791 232.328 129.429 232.328 129.035ZM233.515 128.485V129.035C233.515 129.327 233.585 129.592 233.724 129.83C233.863 130.068 234.106 130.186 234.453 130.186C234.796 130.186 235.035 130.068 235.171 129.83C235.307 129.592 235.375 129.327 235.375 129.035V128.485C235.375 128.193 235.309 127.928 235.176 127.69C235.047 127.452 234.806 127.333 234.453 127.333C234.113 127.333 233.872 127.452 233.729 127.69C233.587 127.928 233.515 128.193 233.515 128.485ZM227.081 123.064V122.514C227.081 122.12 227.162 121.758 227.325 121.429C227.492 121.099 227.733 120.836 228.049 120.639C228.368 120.442 228.753 120.344 229.205 120.344C229.667 120.344 230.054 120.442 230.367 120.639C230.679 120.836 230.915 121.099 231.075 121.429C231.234 121.758 231.314 122.12 231.314 122.514V123.064C231.314 123.458 231.233 123.82 231.07 124.149C230.91 124.475 230.672 124.739 230.357 124.939C230.044 125.136 229.66 125.234 229.205 125.234C228.743 125.234 228.354 125.136 228.038 124.939C227.726 124.739 227.488 124.475 227.325 124.149C227.162 123.82 227.081 123.458 227.081 123.064ZM228.273 122.514V123.064C228.273 123.356 228.341 123.621 228.477 123.859C228.616 124.097 228.859 124.215 229.205 124.215C229.545 124.215 229.783 124.097 229.918 123.859C230.058 123.621 230.127 123.356 230.127 123.064V122.514C230.127 122.222 230.061 121.957 229.929 121.719C229.796 121.481 229.555 121.362 229.205 121.362C228.865 121.362 228.624 121.481 228.482 121.719C228.342 121.957 228.273 122.222 228.273 122.514ZM227.565 130.991L234.738 120.558H235.956L228.782 130.991H227.565Z" fill="white"/>
<path d="M220.8 149.913L214.952 144.065C214.375 143.489 213.593 143.165 212.778 143.165H231.721C230.906 143.165 230.124 143.489 229.547 144.065L223.699 149.913C222.898 150.714 221.601 150.714 220.8 149.913Z" fill="#29292C"/>
<path d="M208.928 143.677H212.354C213.441 143.677 214.483 144.109 215.252 144.878L220.076 149.701C221.276 150.902 223.223 150.902 224.423 149.701L229.247 144.878C230.016 144.109 231.058 143.677 232.145 143.677H235.571" stroke="#29292C" stroke-width="1.02476"/>
<rect x="260.529" y="185.674" width="20.4951" height="83.0052" rx="4.09902" fill="url(#paint5_linear_86_16157)" fill-opacity="0.4"/>
<rect x="309.717" y="137.51" width="20.4951" height="131.169" rx="4.09902" fill="url(#paint6_linear_86_16157)" fill-opacity="0.4"/>
</g>
<defs>
<filter id="filter0_b_86_16157" x="-40.1342" y="-40.1342" width="427.66" height="397.079" filterUnits="userSpaceOnUse" color-interpolation-filters="sRGB">
<feFlood flood-opacity="0" result="BackgroundImageFix"/>
<feGaussianBlur in="BackgroundImageFix" stdDeviation="20.0671"/>
<feComposite in2="SourceAlpha" operator="in" result="effect1_backgroundBlur_86_16157"/>
<feBlend mode="normal" in="SourceGraphic" in2="effect1_backgroundBlur_86_16157" result="shape"/>
</filter>
<linearGradient id="paint0_linear_86_16157" x1="0" y1="0" x2="182.999" y2="393.301" gradientUnits="userSpaceOnUse">
<stop offset="0.1875"/>
<stop offset="1" stop-opacity="0"/>
</linearGradient>
<linearGradient id="paint1_linear_86_16157" x1="64.8007" y1="217.954" x2="85.2958" y2="217.954" gradientUnits="userSpaceOnUse">
<stop stop-color="#92FE9D"/>
<stop offset="1" stop-color="#00C9FF"/>
</linearGradient>
<linearGradient id="paint2_linear_86_16157" x1="113.987" y1="234.862" x2="134.482" y2="234.862" gradientUnits="userSpaceOnUse">
<stop stop-color="#92FE9D"/>
<stop offset="1" stop-color="#00C9FF"/>
</linearGradient>
<linearGradient id="paint3_linear_86_16157" x1="162.154" y1="230.25" x2="182.649" y2="230.25" gradientUnits="userSpaceOnUse">
<stop stop-color="#92FE9D"/>
<stop offset="1" stop-color="#00C9FF"/>
</linearGradient>
<linearGradient id="paint4_linear_86_16157" x1="211.343" y1="208.732" x2="231.838" y2="208.732" gradientUnits="userSpaceOnUse">
<stop stop-color="#92FE9D"/>
<stop offset="1" stop-color="#00C9FF"/>
<stop offset="1" stop-color="#00C9FF"/>
</linearGradient>
<linearGradient id="paint5_linear_86_16157" x1="260.529" y1="227.177" x2="281.024" y2="227.177" gradientUnits="userSpaceOnUse">
<stop stop-color="#92FE9D"/>
<stop offset="1" stop-color="#00C9FF"/>
</linearGradient>
<linearGradient id="paint6_linear_86_16157" x1="309.717" y1="203.095" x2="330.212" y2="203.095" gradientUnits="userSpaceOnUse">
<stop stop-color="#92FE9D"/>
<stop offset="1" stop-color="#00C9FF"/>
</linearGradient>
</defs>
</svg>
