<svg width="262" height="161" viewBox="0 0 262 161" fill="none" xmlns="http://www.w3.org/2000/svg">
<rect x="0.5" y="0.5" width="261" height="160" rx="13.5" fill="#273142" stroke="#313D4F"/>
<path d="M32 127L34.29 129.29L29.41 134.17L25.41 130.17L18 137.59L19.41 139L25.41 133L29.41 137L35.71 130.71L38 133V127H32Z" fill="#00B69B"/>
<path d="M49.872 138V136.608H52.432V128.64L50.432 129.888L49.76 128.656L52.912 126.72H54.08V136.608H56.48V138H49.872ZM58.5378 138V136.096H60.4418V138H58.5378ZM66.0146 138.144C65.2573 138.144 64.5373 138.032 63.8546 137.808C63.172 137.573 62.6013 137.248 62.1426 136.832L62.7186 135.552C63.22 135.957 63.7373 136.256 64.2706 136.448C64.804 136.64 65.3693 136.736 65.9666 136.736C66.7346 136.736 67.316 136.571 67.7106 136.24C68.116 135.909 68.3186 135.435 68.3186 134.816C68.3186 134.197 68.116 133.739 67.7106 133.44C67.316 133.141 66.74 132.992 65.9826 132.992H64.2386V131.6H65.8226C66.4946 131.6 67.0226 131.429 67.4066 131.088C67.8013 130.747 67.9986 130.277 67.9986 129.68C67.9986 129.136 67.8173 128.72 67.4546 128.432C67.092 128.133 66.5746 127.984 65.9026 127.984C64.7613 127.984 63.764 128.395 62.9106 129.216L62.3346 127.952C62.772 127.515 63.316 127.179 63.9666 126.944C64.628 126.699 65.316 126.576 66.0306 126.576C67.1613 126.576 68.0413 126.837 68.6706 127.36C69.3 127.872 69.6146 128.587 69.6146 129.504C69.6146 130.123 69.4546 130.667 69.1346 131.136C68.8253 131.605 68.3933 131.947 67.8386 132.16C68.5106 132.331 69.028 132.661 69.3906 133.152C69.7533 133.632 69.9346 134.224 69.9346 134.928C69.9346 135.92 69.5826 136.704 68.8786 137.28C68.1853 137.856 67.2306 138.144 66.0146 138.144ZM75.7204 138.416L74.6324 137.776L81.2404 126.304L82.3284 126.944L75.7204 138.416ZM74.5684 133.472C73.6937 133.472 73.011 133.168 72.5204 132.56C72.0297 131.941 71.7844 131.093 71.7844 130.016C71.7844 128.939 72.0297 128.096 72.5204 127.488C73.0217 126.88 73.7044 126.576 74.5684 126.576C75.4324 126.576 76.1097 126.88 76.6004 127.488C77.1017 128.096 77.3524 128.939 77.3524 130.016C77.3524 131.093 77.107 131.941 76.6164 132.56C76.1257 133.168 75.443 133.472 74.5684 133.472ZM74.5684 132.336C75.0164 132.336 75.363 132.144 75.6084 131.76C75.8644 131.376 75.9924 130.795 75.9924 130.016C75.9924 129.237 75.8644 128.656 75.6084 128.272C75.363 127.888 75.0164 127.696 74.5684 127.696C74.1204 127.696 73.7684 127.888 73.5124 128.272C73.267 128.656 73.1444 129.237 73.1444 130.016C73.1444 130.805 73.267 131.392 73.5124 131.776C73.7684 132.149 74.1204 132.336 74.5684 132.336ZM82.3924 138.144C81.5284 138.144 80.851 137.84 80.3604 137.232C79.8697 136.624 79.6244 135.776 79.6244 134.688C79.6244 133.621 79.8697 132.784 80.3604 132.176C80.851 131.557 81.5284 131.248 82.3924 131.248C83.267 131.248 83.9497 131.557 84.4404 132.176C84.931 132.784 85.1764 133.621 85.1764 134.688C85.1764 135.776 84.931 136.624 84.4404 137.232C83.9497 137.84 83.267 138.144 82.3924 138.144ZM82.3924 137.024C82.8404 137.024 83.187 136.832 83.4324 136.448C83.6884 136.064 83.8164 135.477 83.8164 134.688C83.8164 133.92 83.6884 133.344 83.4324 132.96C83.187 132.576 82.8404 132.384 82.3924 132.384C81.9444 132.384 81.5924 132.576 81.3364 132.96C81.091 133.333 80.9684 133.909 80.9684 134.688C80.9684 135.477 81.091 136.064 81.3364 136.448C81.5924 136.832 81.9444 137.024 82.3924 137.024Z" fill="#00B69B"/>
<path d="M96.0439 138.144C94.5399 138.144 93.3879 137.749 92.5879 136.96C91.7985 136.16 91.4039 134.992 91.4039 133.456V126.72H93.0679V133.424C93.0679 135.611 94.0599 136.704 96.0439 136.704C98.0279 136.704 99.0199 135.611 99.0199 133.424V126.72H100.652V133.456C100.652 134.992 100.263 136.16 99.4839 136.96C98.7052 137.749 97.5585 138.144 96.0439 138.144ZM103.042 140.88V130.192H104.626V131.52C104.85 131.072 105.192 130.715 105.65 130.448C106.109 130.181 106.637 130.048 107.234 130.048C107.928 130.048 108.53 130.213 109.042 130.544C109.565 130.875 109.965 131.344 110.242 131.952C110.53 132.549 110.674 133.264 110.674 134.096C110.674 134.928 110.53 135.648 110.242 136.256C109.965 136.864 109.565 137.333 109.042 137.664C108.53 137.984 107.928 138.144 107.234 138.144C106.658 138.144 106.141 138.021 105.682 137.776C105.234 137.52 104.893 137.173 104.658 136.736V140.88H103.042ZM106.834 136.896C107.506 136.896 108.04 136.656 108.434 136.176C108.84 135.696 109.042 135.003 109.042 134.096C109.042 133.189 108.84 132.501 108.434 132.032C108.04 131.552 107.506 131.312 106.834 131.312C106.162 131.312 105.624 131.552 105.218 132.032C104.824 132.501 104.626 133.189 104.626 134.096C104.626 135.003 104.824 135.696 105.218 136.176C105.624 136.656 106.162 136.896 106.834 136.896ZM117.163 138V131.44H115.643V130.192H117.163V130.048C117.163 128.971 117.435 128.16 117.979 127.616C118.533 127.072 119.381 126.768 120.523 126.704L121.227 126.656L121.339 127.872L120.603 127.92C119.952 127.963 119.483 128.139 119.195 128.448C118.917 128.757 118.779 129.216 118.779 129.824V130.192H120.971V131.44H118.779V138H117.163ZM122.245 138V130.192H123.813V131.584C124.219 130.656 125.061 130.139 126.341 130.032L126.869 130L126.981 131.376L126.005 131.472C124.587 131.611 123.877 132.341 123.877 133.664V138H122.245ZM131.497 138.144C130.707 138.144 130.025 137.979 129.449 137.648C128.873 137.317 128.425 136.853 128.105 136.256C127.795 135.648 127.641 134.928 127.641 134.096C127.641 133.264 127.795 132.549 128.105 131.952C128.425 131.344 128.873 130.875 129.449 130.544C130.025 130.213 130.707 130.048 131.497 130.048C132.265 130.048 132.937 130.213 133.513 130.544C134.089 130.875 134.537 131.344 134.857 131.952C135.177 132.549 135.337 133.264 135.337 134.096C135.337 134.928 135.177 135.648 134.857 136.256C134.537 136.853 134.089 137.317 133.513 137.648C132.937 137.979 132.265 138.144 131.497 138.144ZM131.497 136.896C132.158 136.896 132.691 136.656 133.097 136.176C133.502 135.696 133.705 135.003 133.705 134.096C133.705 133.189 133.502 132.501 133.097 132.032C132.691 131.552 132.158 131.312 131.497 131.312C130.825 131.312 130.286 131.552 129.881 132.032C129.475 132.501 129.273 133.189 129.273 134.096C129.273 135.003 129.475 135.696 129.881 136.176C130.286 136.656 130.825 136.896 131.497 136.896ZM137.184 138V130.192H138.752V131.456C138.986 131.008 139.312 130.661 139.728 130.416C140.144 130.171 140.629 130.048 141.184 130.048C142.378 130.048 143.152 130.571 143.504 131.616C143.749 131.125 144.101 130.741 144.56 130.464C145.018 130.187 145.541 130.048 146.128 130.048C147.877 130.048 148.752 131.093 148.752 133.184V138H147.136V133.264C147.136 132.603 147.018 132.117 146.784 131.808C146.56 131.499 146.186 131.344 145.664 131.344C145.077 131.344 144.613 131.552 144.272 131.968C143.93 132.373 143.76 132.928 143.76 133.632V138H142.144V133.264C142.144 132.603 142.032 132.117 141.808 131.808C141.584 131.499 141.21 131.344 140.688 131.344C140.101 131.344 139.637 131.552 139.296 131.968C138.965 132.373 138.8 132.928 138.8 133.632V138H137.184ZM155.214 140.88V130.192H156.798V131.52C157.022 131.072 157.363 130.715 157.822 130.448C158.281 130.181 158.809 130.048 159.406 130.048C160.099 130.048 160.702 130.213 161.214 130.544C161.737 130.875 162.137 131.344 162.414 131.952C162.702 132.549 162.846 133.264 162.846 134.096C162.846 134.928 162.702 135.648 162.414 136.256C162.137 136.864 161.737 137.333 161.214 137.664C160.702 137.984 160.099 138.144 159.406 138.144C158.83 138.144 158.313 138.021 157.854 137.776C157.406 137.52 157.065 137.173 156.83 136.736V140.88H155.214ZM159.006 136.896C159.678 136.896 160.211 136.656 160.606 136.176C161.011 135.696 161.214 135.003 161.214 134.096C161.214 133.189 161.011 132.501 160.606 132.032C160.211 131.552 159.678 131.312 159.006 131.312C158.334 131.312 157.795 131.552 157.39 132.032C156.995 132.501 156.798 133.189 156.798 134.096C156.798 135.003 156.995 135.696 157.39 136.176C157.795 136.656 158.334 136.896 159.006 136.896ZM167.163 138.144C166.619 138.144 166.134 138.037 165.707 137.824C165.281 137.611 164.939 137.323 164.683 136.96C164.438 136.597 164.315 136.187 164.315 135.728C164.315 135.152 164.459 134.699 164.747 134.368C165.046 134.037 165.531 133.797 166.203 133.648C166.886 133.499 167.803 133.424 168.955 133.424H169.499V133.008C169.499 132.4 169.371 131.963 169.115 131.696C168.859 131.429 168.438 131.296 167.851 131.296C167.403 131.296 166.955 131.365 166.507 131.504C166.059 131.632 165.601 131.84 165.131 132.128L164.635 130.992C165.041 130.704 165.547 130.475 166.155 130.304C166.763 130.133 167.345 130.048 167.899 130.048C168.966 130.048 169.755 130.304 170.267 130.816C170.779 131.317 171.035 132.107 171.035 133.184V138H169.515V136.704C169.323 137.152 169.025 137.504 168.619 137.76C168.214 138.016 167.729 138.144 167.163 138.144ZM167.483 136.992C168.059 136.992 168.539 136.789 168.923 136.384C169.307 135.979 169.499 135.467 169.499 134.848V134.416H168.971C168.193 134.416 167.579 134.453 167.131 134.528C166.694 134.603 166.379 134.731 166.187 134.912C166.006 135.083 165.915 135.323 165.915 135.632C165.915 136.037 166.054 136.368 166.331 136.624C166.609 136.869 166.993 136.992 167.483 136.992ZM175.997 138.144C175.357 138.144 174.76 138.064 174.205 137.904C173.65 137.733 173.186 137.499 172.813 137.2L173.277 136.112C173.672 136.389 174.104 136.603 174.573 136.752C175.053 136.901 175.533 136.976 176.013 136.976C176.578 136.976 177.005 136.875 177.293 136.672C177.581 136.469 177.725 136.197 177.725 135.856C177.725 135.579 177.629 135.365 177.437 135.216C177.245 135.056 176.957 134.933 176.573 134.848L175.053 134.544C173.709 134.267 173.037 133.573 173.037 132.464C173.037 131.728 173.33 131.141 173.917 130.704C174.504 130.267 175.272 130.048 176.221 130.048C176.765 130.048 177.282 130.128 177.773 130.288C178.274 130.448 178.69 130.688 179.021 131.008L178.557 132.096C178.237 131.819 177.869 131.605 177.453 131.456C177.037 131.307 176.626 131.232 176.221 131.232C175.666 131.232 175.245 131.339 174.957 131.552C174.669 131.755 174.525 132.032 174.525 132.384C174.525 132.917 174.877 133.259 175.581 133.408L177.101 133.712C177.794 133.851 178.317 134.085 178.669 134.416C179.032 134.747 179.213 135.195 179.213 135.76C179.213 136.507 178.92 137.093 178.333 137.52C177.746 137.936 176.968 138.144 175.997 138.144ZM184.261 138.144C183.28 138.144 182.549 137.893 182.069 137.392C181.589 136.891 181.349 136.165 181.349 135.216V131.44H179.829V130.192H181.349V127.84H182.965V130.192H185.381V131.44H182.965V135.088C182.965 135.653 183.082 136.08 183.317 136.368C183.562 136.656 183.957 136.8 184.501 136.8C184.672 136.8 184.837 136.784 184.997 136.752C185.157 136.709 185.317 136.661 185.477 136.608L185.733 137.824C185.573 137.92 185.349 137.995 185.061 138.048C184.784 138.112 184.517 138.144 184.261 138.144ZM193.092 138L190.116 130.192H191.78L193.876 136.112L196.036 130.192H197.284L199.412 136.144L201.54 130.192H203.124L200.148 138H198.676L196.612 132.416L194.564 138H193.092ZM208.034 138.144C206.754 138.144 205.746 137.787 205.01 137.072C204.274 136.347 203.906 135.36 203.906 134.112C203.906 133.312 204.066 132.608 204.386 132C204.717 131.381 205.17 130.901 205.746 130.56C206.322 130.219 206.984 130.048 207.73 130.048C208.808 130.048 209.656 130.395 210.274 131.088C210.893 131.771 211.202 132.715 211.202 133.92V134.464H205.474C205.592 136.085 206.45 136.896 208.05 136.896C208.498 136.896 208.936 136.827 209.362 136.688C209.8 136.549 210.21 136.32 210.594 136L211.074 137.12C210.722 137.44 210.269 137.691 209.714 137.872C209.16 138.053 208.6 138.144 208.034 138.144ZM207.794 131.184C207.122 131.184 206.589 131.392 206.194 131.808C205.8 132.224 205.56 132.779 205.474 133.472H209.842C209.81 132.747 209.618 132.187 209.266 131.792C208.914 131.387 208.424 131.184 207.794 131.184ZM216.628 138.144C215.348 138.144 214.34 137.787 213.604 137.072C212.868 136.347 212.5 135.36 212.5 134.112C212.5 133.312 212.66 132.608 212.98 132C213.311 131.381 213.764 130.901 214.34 130.56C214.916 130.219 215.577 130.048 216.324 130.048C217.401 130.048 218.249 130.395 218.868 131.088C219.487 131.771 219.796 132.715 219.796 133.92V134.464H214.068C214.185 136.085 215.044 136.896 216.644 136.896C217.092 136.896 217.529 136.827 217.956 136.688C218.393 136.549 218.804 136.32 219.188 136L219.668 137.12C219.316 137.44 218.863 137.691 218.308 137.872C217.753 138.053 217.193 138.144 216.628 138.144ZM216.388 131.184C215.716 131.184 215.183 131.392 214.788 131.808C214.393 132.224 214.153 132.779 214.068 133.472H218.436C218.404 132.747 218.212 132.187 217.86 131.792C217.508 131.387 217.017 131.184 216.388 131.184ZM221.558 138V126.72H223.174V133.6H223.206L226.598 130.192H228.598L224.854 133.952L228.886 138H226.87L223.206 134.432H223.174V138H221.558Z" fill="white"/>
<path opacity="0.85" fill-rule="evenodd" clip-rule="evenodd" d="M186 46V53C186 65.7025 196.297 76 209 76H216H223C235.703 76 246 65.7025 246 53V46V39C246 26.2975 235.703 16 223 16H216H209C196.297 16 186 26.2975 186 39V46Z" fill="#FEC53D"/>
<path fill-rule="evenodd" clip-rule="evenodd" d="M201 40.3165L213.9 47.7646C214.039 47.8448 214.185 47.9027 214.333 47.9395V62.3847L201.92 55.0385C201.35 54.701 201 54.0876 201 53.4249V40.3165ZM231 40.1185V53.4249C231 54.0876 230.65 54.701 230.08 55.0385L217.667 62.3847V47.8129C217.697 47.7978 217.727 47.7817 217.757 47.7646L231 40.1185Z" fill="white"/>
<path opacity="0.499209" fill-rule="evenodd" clip-rule="evenodd" d="M201.405 36.7014C201.563 36.5024 201.762 36.3343 201.994 36.2108L215.119 29.2201C215.67 28.9266 216.331 28.9266 216.881 29.2201L230.006 36.2108C230.185 36.306 230.344 36.4277 230.48 36.5697L216.09 44.8778C215.995 44.9325 215.908 44.995 215.829 45.064C215.749 44.995 215.662 44.9325 215.567 44.8778L201.405 36.7014Z" fill="white"/>
<path opacity="0.7" d="M20.064 32V22.112H16.064V20.72H25.712V22.112H21.712V32H20.064ZM29.0749 32.144C28.2855 32.144 27.6029 31.9787 27.0269 31.648C26.4509 31.3173 26.0029 30.8533 25.6829 30.256C25.3735 29.648 25.2189 28.928 25.2189 28.096C25.2189 27.264 25.3735 26.5493 25.6829 25.952C26.0029 25.344 26.4509 24.8747 27.0269 24.544C27.6029 24.2133 28.2855 24.048 29.0749 24.048C29.8429 24.048 30.5149 24.2133 31.0909 24.544C31.6669 24.8747 32.1149 25.344 32.4349 25.952C32.7549 26.5493 32.9149 27.264 32.9149 28.096C32.9149 28.928 32.7549 29.648 32.4349 30.256C32.1149 30.8533 31.6669 31.3173 31.0909 31.648C30.5149 31.9787 29.8429 32.144 29.0749 32.144ZM29.0749 30.896C29.7362 30.896 30.2695 30.656 30.6749 30.176C31.0802 29.696 31.2829 29.0027 31.2829 28.096C31.2829 27.1893 31.0802 26.5013 30.6749 26.032C30.2695 25.552 29.7362 25.312 29.0749 25.312C28.4029 25.312 27.8642 25.552 27.4589 26.032C27.0535 26.5013 26.8509 27.1893 26.8509 28.096C26.8509 29.0027 27.0535 29.696 27.4589 30.176C27.8642 30.656 28.4029 30.896 29.0749 30.896ZM37.9796 32.144C36.9983 32.144 36.2676 31.8933 35.7876 31.392C35.3076 30.8907 35.0676 30.1653 35.0676 29.216V25.44H33.5476V24.192H35.0676V21.84H36.6836V24.192H39.0996V25.44H36.6836V29.088C36.6836 29.6533 36.801 30.08 37.0356 30.368C37.281 30.656 37.6756 30.8 38.2196 30.8C38.3903 30.8 38.5556 30.784 38.7156 30.752C38.8756 30.7093 39.0356 30.6613 39.1956 30.608L39.4516 31.824C39.2916 31.92 39.0676 31.9947 38.7796 32.048C38.5023 32.112 38.2356 32.144 37.9796 32.144ZM42.9914 32.144C42.4474 32.144 41.962 32.0373 41.5354 31.824C41.1087 31.6107 40.7674 31.3227 40.5114 30.96C40.266 30.5973 40.1434 30.1867 40.1434 29.728C40.1434 29.152 40.2874 28.6987 40.5754 28.368C40.874 28.0373 41.3594 27.7973 42.0314 27.648C42.714 27.4987 43.6314 27.424 44.7834 27.424H45.3274V27.008C45.3274 26.4 45.1994 25.9627 44.9434 25.696C44.6874 25.4293 44.266 25.296 43.6794 25.296C43.2314 25.296 42.7834 25.3653 42.3354 25.504C41.8874 25.632 41.4287 25.84 40.9594 26.128L40.4634 24.992C40.8687 24.704 41.3754 24.4747 41.9834 24.304C42.5914 24.1333 43.1727 24.048 43.7274 24.048C44.794 24.048 45.5834 24.304 46.0954 24.816C46.6074 25.3173 46.8634 26.1067 46.8634 27.184V32H45.3434V30.704C45.1514 31.152 44.8527 31.504 44.4474 31.76C44.042 32.016 43.5567 32.144 42.9914 32.144ZM43.3114 30.992C43.8874 30.992 44.3674 30.7893 44.7514 30.384C45.1354 29.9787 45.3274 29.4667 45.3274 28.848V28.416H44.7994C44.0207 28.416 43.4074 28.4533 42.9594 28.528C42.522 28.6027 42.2074 28.7307 42.0154 28.912C41.834 29.0827 41.7434 29.3227 41.7434 29.632C41.7434 30.0373 41.882 30.368 42.1594 30.624C42.4367 30.8693 42.8207 30.992 43.3114 30.992ZM51.6331 32.144C50.7798 32.144 50.1398 31.904 49.7131 31.424C49.2971 30.944 49.0891 30.24 49.0891 29.312V20.72H50.7051V29.216C50.7051 30.272 51.1371 30.8 52.0011 30.8C52.1291 30.8 52.2465 30.7947 52.3531 30.784C52.4705 30.7733 52.5878 30.752 52.7051 30.72L52.6731 32.016C52.3105 32.1013 51.9638 32.144 51.6331 32.144ZM62.1189 32.144C61.2335 32.144 60.4229 32.032 59.6869 31.808C58.9509 31.5733 58.3269 31.248 57.8149 30.832L58.3429 29.52C58.8762 29.9253 59.4469 30.2293 60.0549 30.432C60.6629 30.6347 61.3509 30.736 62.1189 30.736C63.0255 30.736 63.6922 30.576 64.1189 30.256C64.5562 29.9253 64.7749 29.4987 64.7749 28.976C64.7749 28.5493 64.6202 28.2133 64.3109 27.968C64.0015 27.712 63.4842 27.5093 62.7589 27.36L61.0469 27.008C60.0335 26.7947 59.2762 26.4427 58.7749 25.952C58.2842 25.4613 58.0389 24.8 58.0389 23.968C58.0389 23.296 58.2149 22.704 58.5669 22.192C58.9295 21.68 59.4309 21.2853 60.0709 21.008C60.7109 20.72 61.4469 20.576 62.2789 20.576C63.0469 20.576 63.7562 20.6933 64.4069 20.928C65.0682 21.152 65.6282 21.4827 66.0869 21.92L65.5429 23.184C64.6362 22.384 63.5429 21.984 62.2629 21.984C61.4735 21.984 60.8442 22.16 60.3749 22.512C59.9162 22.864 59.6869 23.3333 59.6869 23.92C59.6869 24.368 59.8309 24.7253 60.1189 24.992C60.4069 25.2587 60.8869 25.4613 61.5589 25.6L63.2549 25.952C64.3215 26.176 65.1162 26.5227 65.6389 26.992C66.1615 27.4507 66.4229 28.0747 66.4229 28.864C66.4229 29.5253 66.2469 30.1013 65.8949 30.592C65.5429 31.0827 65.0469 31.4667 64.4069 31.744C63.7669 32.0107 63.0042 32.144 62.1189 32.144ZM70.92 32.144C69.032 32.144 68.088 31.0933 68.088 28.992V24.192H69.704V29.008C69.704 29.6373 69.832 30.1013 70.088 30.4C70.344 30.6987 70.7493 30.848 71.304 30.848C71.912 30.848 72.4027 30.6453 72.776 30.24C73.16 29.8347 73.352 29.2907 73.352 28.608V24.192H74.968V32H73.4V30.752C73.144 31.2107 72.8027 31.5573 72.376 31.792C71.9493 32.0267 71.464 32.144 70.92 32.144ZM81.4374 32.144C80.84 32.144 80.312 32.0107 79.8534 31.744C79.3947 31.4773 79.0534 31.12 78.8294 30.672V32H77.2454V20.72H78.8614V25.456C79.096 25.0293 79.4374 24.688 79.8854 24.432C80.344 24.176 80.8614 24.048 81.4374 24.048C82.1307 24.048 82.7334 24.2133 83.2454 24.544C83.768 24.8747 84.168 25.344 84.4454 25.952C84.7334 26.5493 84.8774 27.264 84.8774 28.096C84.8774 28.928 84.7334 29.648 84.4454 30.256C84.168 30.864 83.768 31.3333 83.2454 31.664C82.7334 31.984 82.1307 32.144 81.4374 32.144ZM81.0374 30.896C81.7094 30.896 82.2427 30.656 82.6374 30.176C83.0427 29.696 83.2454 29.0027 83.2454 28.096C83.2454 27.1893 83.0427 26.5013 82.6374 26.032C82.2427 25.552 81.7094 25.312 81.0374 25.312C80.3654 25.312 79.8267 25.552 79.4214 26.032C79.0267 26.5013 78.8294 27.1893 78.8294 28.096C78.8294 29.0027 79.0267 29.696 79.4214 30.176C79.8267 30.656 80.3654 30.896 81.0374 30.896ZM89.4345 32.144C88.7945 32.144 88.1972 32.064 87.6425 31.904C87.0878 31.7333 86.6238 31.4987 86.2505 31.2L86.7145 30.112C87.1092 30.3893 87.5412 30.6027 88.0105 30.752C88.4905 30.9013 88.9705 30.976 89.4505 30.976C90.0158 30.976 90.4425 30.8747 90.7305 30.672C91.0185 30.4693 91.1625 30.1973 91.1625 29.856C91.1625 29.5787 91.0665 29.3653 90.8745 29.216C90.6825 29.056 90.3945 28.9333 90.0105 28.848L88.4905 28.544C87.1465 28.2667 86.4745 27.5733 86.4745 26.464C86.4745 25.728 86.7678 25.1413 87.3545 24.704C87.9412 24.2667 88.7092 24.048 89.6585 24.048C90.2025 24.048 90.7198 24.128 91.2105 24.288C91.7118 24.448 92.1278 24.688 92.4585 25.008L91.9945 26.096C91.6745 25.8187 91.3065 25.6053 90.8905 25.456C90.4745 25.3067 90.0638 25.232 89.6585 25.232C89.1038 25.232 88.6825 25.3387 88.3945 25.552C88.1065 25.7547 87.9625 26.032 87.9625 26.384C87.9625 26.9173 88.3145 27.2587 89.0185 27.408L90.5385 27.712C91.2318 27.8507 91.7545 28.0853 92.1065 28.416C92.4692 28.7467 92.6505 29.1947 92.6505 29.76C92.6505 30.5067 92.3572 31.0933 91.7705 31.52C91.1838 31.936 90.4052 32.144 89.4345 32.144ZM97.8885 32.144C97.0885 32.144 96.3952 31.9787 95.8085 31.648C95.2325 31.3067 94.7845 30.832 94.4645 30.224C94.1445 29.6053 93.9845 28.88 93.9845 28.048C93.9845 26.8107 94.3365 25.8347 95.0405 25.12C95.7445 24.4053 96.6938 24.048 97.8885 24.048C98.3792 24.048 98.8645 24.1333 99.3445 24.304C99.8245 24.4747 100.219 24.7093 100.529 25.008L100.017 26.144C99.7178 25.8667 99.3872 25.664 99.0245 25.536C98.6725 25.3973 98.3365 25.328 98.0165 25.328C97.2592 25.328 96.6725 25.568 96.2565 26.048C95.8512 26.5173 95.6485 27.1893 95.6485 28.064C95.6485 28.9387 95.8512 29.6267 96.2565 30.128C96.6725 30.6187 97.2592 30.864 98.0165 30.864C98.3365 30.864 98.6725 30.8 99.0245 30.672C99.3872 30.5333 99.7178 30.3253 100.017 30.048L100.529 31.2C100.219 31.488 99.8192 31.7173 99.3285 31.888C98.8485 32.0587 98.3685 32.144 97.8885 32.144ZM101.917 32V24.192H103.485V25.584C103.891 24.656 104.733 24.1387 106.013 24.032L106.541 24L106.653 25.376L105.677 25.472C104.259 25.6107 103.549 26.3413 103.549 27.664V32H101.917ZM107.742 22.384V20.704H109.63V22.384H107.742ZM107.886 32V24.192H109.502V32H107.886ZM115.969 32.144C115.371 32.144 114.843 32.0107 114.385 31.744C113.926 31.4773 113.585 31.12 113.361 30.672V32H111.777V20.72H113.393V25.456C113.627 25.0293 113.969 24.688 114.417 24.432C114.875 24.176 115.393 24.048 115.969 24.048C116.662 24.048 117.265 24.2133 117.777 24.544C118.299 24.8747 118.699 25.344 118.977 25.952C119.265 26.5493 119.409 27.264 119.409 28.096C119.409 28.928 119.265 29.648 118.977 30.256C118.699 30.864 118.299 31.3333 117.777 31.664C117.265 31.984 116.662 32.144 115.969 32.144ZM115.569 30.896C116.241 30.896 116.774 30.656 117.169 30.176C117.574 29.696 117.777 29.0027 117.777 28.096C117.777 27.1893 117.574 26.5013 117.169 26.032C116.774 25.552 116.241 25.312 115.569 25.312C114.897 25.312 114.358 25.552 113.953 26.032C113.558 26.5013 113.361 27.1893 113.361 28.096C113.361 29.0027 113.558 29.696 113.953 30.176C114.358 30.656 114.897 30.896 115.569 30.896ZM124.894 32.144C123.614 32.144 122.606 31.7867 121.87 31.072C121.134 30.3467 120.766 29.36 120.766 28.112C120.766 27.312 120.926 26.608 121.246 26C121.576 25.3813 122.03 24.9013 122.606 24.56C123.182 24.2187 123.843 24.048 124.59 24.048C125.667 24.048 126.515 24.3947 127.134 25.088C127.752 25.7707 128.062 26.7147 128.062 27.92V28.464H122.334C122.451 30.0853 123.31 30.896 124.91 30.896C125.358 30.896 125.795 30.8267 126.222 30.688C126.659 30.5493 127.07 30.32 127.454 30L127.934 31.12C127.582 31.44 127.128 31.6907 126.574 31.872C126.019 32.0533 125.459 32.144 124.894 32.144ZM124.654 25.184C123.982 25.184 123.448 25.392 123.054 25.808C122.659 26.224 122.419 26.7787 122.334 27.472H126.702C126.67 26.7467 126.478 26.1867 126.126 25.792C125.774 25.3867 125.283 25.184 124.654 25.184ZM129.824 32V24.192H131.392V25.584C131.797 24.656 132.64 24.1387 133.92 24.032L134.448 24L134.56 25.376L133.584 25.472C132.165 25.6107 131.456 26.3413 131.456 27.664V32H129.824ZM138.45 32.144C137.81 32.144 137.213 32.064 136.658 31.904C136.103 31.7333 135.639 31.4987 135.266 31.2L135.73 30.112C136.125 30.3893 136.557 30.6027 137.026 30.752C137.506 30.9013 137.986 30.976 138.466 30.976C139.031 30.976 139.458 30.8747 139.746 30.672C140.034 30.4693 140.178 30.1973 140.178 29.856C140.178 29.5787 140.082 29.3653 139.89 29.216C139.698 29.056 139.41 28.9333 139.026 28.848L137.506 28.544C136.162 28.2667 135.49 27.5733 135.49 26.464C135.49 25.728 135.783 25.1413 136.37 24.704C136.957 24.2667 137.725 24.048 138.674 24.048C139.218 24.048 139.735 24.128 140.226 24.288C140.727 24.448 141.143 24.688 141.474 25.008L141.01 26.096C140.69 25.8187 140.322 25.6053 139.906 25.456C139.49 25.3067 139.079 25.232 138.674 25.232C138.119 25.232 137.698 25.3387 137.41 25.552C137.122 25.7547 136.978 26.032 136.978 26.384C136.978 26.9173 137.33 27.2587 138.034 27.408L139.554 27.712C140.247 27.8507 140.77 28.0853 141.122 28.416C141.485 28.7467 141.666 29.1947 141.666 29.76C141.666 30.5067 141.373 31.0933 140.786 31.52C140.199 31.936 139.421 32.144 138.45 32.144Z" fill="white"/>
<path d="M19.052 82V79.032H23.504V66.348L20.06 68.42L18.66 65.788L24.54 62.26H27.088V79.032H31.26V82H19.052ZM42.1891 82.28C39.8557 82.28 38.0731 81.4027 36.8411 79.648C35.6091 77.8747 34.9931 75.3547 34.9931 72.088C34.9931 68.784 35.6091 66.2733 36.8411 64.556C38.0731 62.8387 39.8557 61.98 42.1891 61.98C44.5411 61.98 46.3237 62.8387 47.5371 64.556C48.7691 66.2733 49.3851 68.7747 49.3851 72.06C49.3851 75.3453 48.7691 77.8747 47.5371 79.648C46.3051 81.4027 44.5224 82.28 42.1891 82.28ZM42.1891 79.34C43.4584 79.34 44.3917 78.7613 44.9891 77.604C45.6051 76.428 45.9131 74.58 45.9131 72.06C45.9131 69.5587 45.6051 67.748 44.9891 66.628C44.3917 65.4893 43.4584 64.92 42.1891 64.92C40.9384 64.92 40.0051 65.4893 39.3891 66.628C38.7731 67.748 38.4651 69.5587 38.4651 72.06C38.4651 74.58 38.7731 76.428 39.3891 77.604C40.0051 78.7613 40.9384 79.34 42.1891 79.34ZM53.8181 82V79.34L60.2021 72.536C61.0608 71.6027 61.6768 70.7813 62.0501 70.072C62.4235 69.344 62.6101 68.6067 62.6101 67.86C62.6101 65.956 61.4621 65.004 59.1661 65.004C57.3741 65.004 55.7221 65.676 54.2101 67.02L53.0061 64.332C53.7901 63.6227 54.7701 63.0533 55.9461 62.624C57.1221 62.1947 58.3448 61.98 59.6141 61.98C61.7235 61.98 63.3381 62.456 64.4581 63.408C65.5968 64.36 66.1661 65.7227 66.1661 67.496C66.1661 68.6907 65.8768 69.8387 65.2981 70.94C64.7381 72.0413 63.8515 73.2267 62.6381 74.496L58.2981 79.032H66.9221V82H53.8181ZM76.2552 82.28C75.2099 82.28 74.1739 82.084 73.1472 81.692C72.1205 81.2813 71.2339 80.7307 70.4872 80.04L71.6912 77.352C72.3632 77.9867 73.0912 78.4627 73.8752 78.78C74.6779 79.0973 75.4805 79.256 76.2832 79.256C77.9259 79.256 79.1765 78.6867 80.0352 77.548C80.8939 76.4093 81.3232 74.7107 81.3232 72.452V71.612C80.9499 72.6387 80.3245 73.4507 79.4472 74.048C78.5699 74.6267 77.5432 74.916 76.3672 74.916C75.2472 74.916 74.2485 74.6453 73.3712 74.104C72.4939 73.5627 71.7939 72.816 71.2712 71.864C70.7672 70.8933 70.5152 69.8013 70.5152 68.588C70.5152 67.3 70.7952 66.1613 71.3552 65.172C71.9152 64.1827 72.6805 63.408 73.6512 62.848C74.6405 62.2693 75.7699 61.98 77.0392 61.98C79.5032 61.98 81.3979 62.8387 82.7232 64.556C84.0485 66.2547 84.7112 68.6627 84.7112 71.78C84.7112 75.1027 83.9645 77.688 82.4712 79.536C80.9779 81.3653 78.9059 82.28 76.2552 82.28ZM77.2632 72.06C78.2712 72.06 79.0832 71.7333 79.6992 71.08C80.3339 70.408 80.6512 69.5307 80.6512 68.448C80.6512 67.3653 80.3339 66.488 79.6992 65.816C79.0832 65.144 78.2712 64.808 77.2632 64.808C76.2552 64.808 75.4339 65.144 74.7992 65.816C74.1832 66.488 73.8752 67.3653 73.8752 68.448C73.8752 69.5307 74.1832 70.408 74.7992 71.08C75.4339 71.7333 76.2552 72.06 77.2632 72.06ZM95.1643 82.28C93.8203 82.28 92.5323 82.084 91.3003 81.692C90.0869 81.2813 89.0789 80.7307 88.2763 80.04L89.4523 77.296C91.1323 78.6027 92.9989 79.256 95.0523 79.256C97.5723 79.256 98.8323 78.2667 98.8323 76.288C98.8323 75.3547 98.5149 74.664 97.8803 74.216C97.2643 73.7493 96.3589 73.516 95.1643 73.516H92.0003V70.548H94.8283C95.8736 70.548 96.7043 70.296 97.3203 69.792C97.9363 69.2693 98.2443 68.5507 98.2443 67.636C98.2443 66.7773 97.9549 66.124 97.3763 65.676C96.8163 65.228 95.9949 65.004 94.9123 65.004C92.9709 65.004 91.2629 65.676 89.7883 67.02L88.6123 64.332C89.3963 63.5853 90.3763 63.0067 91.5523 62.596C92.7283 62.1853 93.9509 61.98 95.2203 61.98C97.2736 61.98 98.8696 62.4467 100.008 63.38C101.147 64.2947 101.716 65.5733 101.716 67.216C101.716 68.28 101.446 69.2133 100.904 70.016C100.363 70.8187 99.6256 71.3973 98.6923 71.752C99.8309 72.0693 100.718 72.6573 101.352 73.516C101.987 74.356 102.304 75.3827 102.304 76.596C102.304 78.3507 101.67 79.7413 100.4 80.768C99.1309 81.776 97.3856 82.28 95.1643 82.28Z" fill="white"/>
</svg>
