<svg width="262" height="161" viewBox="0 0 262 161" fill="none" xmlns="http://www.w3.org/2000/svg">
<rect x="0.5" y="0.5" width="261" height="160" rx="13.5" fill="#273142" stroke="#313D4F"/>
<path d="M32 127L34.29 129.29L29.41 134.17L25.41 130.17L18 137.59L19.41 139L25.41 133L29.41 137L35.71 130.71L38 133V127H32Z" fill="#00B69B"/>
<path d="M52.8 138.144C51.5093 138.144 50.5013 137.867 49.776 137.312C49.0613 136.757 48.704 135.984 48.704 134.992C48.704 134.299 48.8853 133.712 49.248 133.232C49.6213 132.741 50.1067 132.405 50.704 132.224C50.1707 132 49.7493 131.659 49.44 131.2C49.1307 130.731 48.976 130.192 48.976 129.584C48.976 128.645 49.3227 127.909 50.016 127.376C50.7093 126.843 51.6373 126.576 52.8 126.576C53.9733 126.576 54.9067 126.843 55.6 127.376C56.2933 127.909 56.64 128.645 56.64 129.584C56.64 130.192 56.48 130.731 56.16 131.2C55.8507 131.669 55.4293 132.011 54.896 132.224C55.504 132.405 55.9893 132.741 56.352 133.232C56.7147 133.712 56.896 134.299 56.896 134.992C56.896 135.984 56.5333 136.757 55.808 137.312C55.0933 137.867 54.0907 138.144 52.8 138.144ZM52.8 131.632C53.5147 131.632 54.0693 131.467 54.464 131.136C54.8693 130.795 55.072 130.331 55.072 129.744C55.072 129.168 54.8693 128.715 54.464 128.384C54.0693 128.053 53.5147 127.888 52.8 127.888C52.0853 127.888 51.5307 128.053 51.136 128.384C50.7413 128.715 50.544 129.168 50.544 129.744C50.544 130.331 50.7413 130.795 51.136 131.136C51.5307 131.467 52.0853 131.632 52.8 131.632ZM52.8 136.832C54.496 136.832 55.344 136.181 55.344 134.88C55.344 133.589 54.496 132.944 52.8 132.944C51.968 132.944 51.3333 133.104 50.896 133.424C50.4693 133.744 50.256 134.229 50.256 134.88C50.256 136.181 51.104 136.832 52.8 136.832ZM58.5378 138V136.096H60.4418V138H58.5378ZM66.3666 138.144C65.6413 138.144 64.9373 138.032 64.2546 137.808C63.5826 137.573 63.0226 137.248 62.5746 136.832L63.1346 135.552C64.116 136.341 65.1826 136.736 66.3346 136.736C67.0706 136.736 67.6466 136.539 68.0626 136.144C68.4786 135.739 68.6866 135.211 68.6866 134.56C68.6866 133.888 68.4893 133.339 68.0946 132.912C67.7 132.485 67.1506 132.272 66.4466 132.272C65.4546 132.272 64.66 132.683 64.0626 133.504H62.9106V126.72H69.6306V128.112H64.5266V131.68C65.124 131.157 65.8813 130.896 66.7986 130.896C67.5133 130.896 68.132 131.045 68.6546 131.344C69.1773 131.643 69.5826 132.064 69.8706 132.608C70.1586 133.141 70.3026 133.765 70.3026 134.48C70.3026 135.205 70.1426 135.845 69.8226 136.4C69.5026 136.944 69.0493 137.371 68.4626 137.68C67.876 137.989 67.1773 138.144 66.3666 138.144ZM75.7204 138.416L74.6324 137.776L81.2404 126.304L82.3284 126.944L75.7204 138.416ZM74.5684 133.472C73.6937 133.472 73.011 133.168 72.5204 132.56C72.0297 131.941 71.7844 131.093 71.7844 130.016C71.7844 128.939 72.0297 128.096 72.5204 127.488C73.0217 126.88 73.7044 126.576 74.5684 126.576C75.4324 126.576 76.1097 126.88 76.6004 127.488C77.1017 128.096 77.3524 128.939 77.3524 130.016C77.3524 131.093 77.107 131.941 76.6164 132.56C76.1257 133.168 75.443 133.472 74.5684 133.472ZM74.5684 132.336C75.0164 132.336 75.363 132.144 75.6084 131.76C75.8644 131.376 75.9924 130.795 75.9924 130.016C75.9924 129.237 75.8644 128.656 75.6084 128.272C75.363 127.888 75.0164 127.696 74.5684 127.696C74.1204 127.696 73.7684 127.888 73.5124 128.272C73.267 128.656 73.1444 129.237 73.1444 130.016C73.1444 130.805 73.267 131.392 73.5124 131.776C73.7684 132.149 74.1204 132.336 74.5684 132.336ZM82.3924 138.144C81.5284 138.144 80.851 137.84 80.3604 137.232C79.8697 136.624 79.6244 135.776 79.6244 134.688C79.6244 133.621 79.8697 132.784 80.3604 132.176C80.851 131.557 81.5284 131.248 82.3924 131.248C83.267 131.248 83.9497 131.557 84.4404 132.176C84.931 132.784 85.1764 133.621 85.1764 134.688C85.1764 135.776 84.931 136.624 84.4404 137.232C83.9497 137.84 83.267 138.144 82.3924 138.144ZM82.3924 137.024C82.8404 137.024 83.187 136.832 83.4324 136.448C83.6884 136.064 83.8164 135.477 83.8164 134.688C83.8164 133.92 83.6884 133.344 83.4324 132.96C83.187 132.576 82.8404 132.384 82.3924 132.384C81.9444 132.384 81.5924 132.576 81.3364 132.96C81.091 133.333 80.9684 133.909 80.9684 134.688C80.9684 135.477 81.091 136.064 81.3364 136.448C81.5924 136.832 81.9444 137.024 82.3924 137.024Z" fill="#00B69B"/>
<path d="M96.0439 138.144C94.5399 138.144 93.3879 137.749 92.5879 136.96C91.7985 136.16 91.4039 134.992 91.4039 133.456V126.72H93.0679V133.424C93.0679 135.611 94.0599 136.704 96.0439 136.704C98.0279 136.704 99.0199 135.611 99.0199 133.424V126.72H100.652V133.456C100.652 134.992 100.263 136.16 99.4839 136.96C98.7052 137.749 97.5585 138.144 96.0439 138.144ZM103.042 140.88V130.192H104.626V131.52C104.85 131.072 105.192 130.715 105.65 130.448C106.109 130.181 106.637 130.048 107.234 130.048C107.928 130.048 108.53 130.213 109.042 130.544C109.565 130.875 109.965 131.344 110.242 131.952C110.53 132.549 110.674 133.264 110.674 134.096C110.674 134.928 110.53 135.648 110.242 136.256C109.965 136.864 109.565 137.333 109.042 137.664C108.53 137.984 107.928 138.144 107.234 138.144C106.658 138.144 106.141 138.021 105.682 137.776C105.234 137.52 104.893 137.173 104.658 136.736V140.88H103.042ZM106.834 136.896C107.506 136.896 108.04 136.656 108.434 136.176C108.84 135.696 109.042 135.003 109.042 134.096C109.042 133.189 108.84 132.501 108.434 132.032C108.04 131.552 107.506 131.312 106.834 131.312C106.162 131.312 105.624 131.552 105.218 132.032C104.824 132.501 104.626 133.189 104.626 134.096C104.626 135.003 104.824 135.696 105.218 136.176C105.624 136.656 106.162 136.896 106.834 136.896ZM117.163 138V131.44H115.643V130.192H117.163V130.048C117.163 128.971 117.435 128.16 117.979 127.616C118.533 127.072 119.381 126.768 120.523 126.704L121.227 126.656L121.339 127.872L120.603 127.92C119.952 127.963 119.483 128.139 119.195 128.448C118.917 128.757 118.779 129.216 118.779 129.824V130.192H120.971V131.44H118.779V138H117.163ZM122.245 138V130.192H123.813V131.584C124.219 130.656 125.061 130.139 126.341 130.032L126.869 130L126.981 131.376L126.005 131.472C124.587 131.611 123.877 132.341 123.877 133.664V138H122.245ZM131.497 138.144C130.707 138.144 130.025 137.979 129.449 137.648C128.873 137.317 128.425 136.853 128.105 136.256C127.795 135.648 127.641 134.928 127.641 134.096C127.641 133.264 127.795 132.549 128.105 131.952C128.425 131.344 128.873 130.875 129.449 130.544C130.025 130.213 130.707 130.048 131.497 130.048C132.265 130.048 132.937 130.213 133.513 130.544C134.089 130.875 134.537 131.344 134.857 131.952C135.177 132.549 135.337 133.264 135.337 134.096C135.337 134.928 135.177 135.648 134.857 136.256C134.537 136.853 134.089 137.317 133.513 137.648C132.937 137.979 132.265 138.144 131.497 138.144ZM131.497 136.896C132.158 136.896 132.691 136.656 133.097 136.176C133.502 135.696 133.705 135.003 133.705 134.096C133.705 133.189 133.502 132.501 133.097 132.032C132.691 131.552 132.158 131.312 131.497 131.312C130.825 131.312 130.286 131.552 129.881 132.032C129.475 132.501 129.273 133.189 129.273 134.096C129.273 135.003 129.475 135.696 129.881 136.176C130.286 136.656 130.825 136.896 131.497 136.896ZM137.184 138V130.192H138.752V131.456C138.986 131.008 139.312 130.661 139.728 130.416C140.144 130.171 140.629 130.048 141.184 130.048C142.378 130.048 143.152 130.571 143.504 131.616C143.749 131.125 144.101 130.741 144.56 130.464C145.018 130.187 145.541 130.048 146.128 130.048C147.877 130.048 148.752 131.093 148.752 133.184V138H147.136V133.264C147.136 132.603 147.018 132.117 146.784 131.808C146.56 131.499 146.186 131.344 145.664 131.344C145.077 131.344 144.613 131.552 144.272 131.968C143.93 132.373 143.76 132.928 143.76 133.632V138H142.144V133.264C142.144 132.603 142.032 132.117 141.808 131.808C141.584 131.499 141.21 131.344 140.688 131.344C140.101 131.344 139.637 131.552 139.296 131.968C138.965 132.373 138.8 132.928 138.8 133.632V138H137.184ZM156.014 140.88L157.406 137.792L154.142 130.192H155.87L158.27 136.128L160.702 130.192H162.366L157.71 140.88H156.014ZM167.05 138.144C165.77 138.144 164.762 137.787 164.026 137.072C163.29 136.347 162.922 135.36 162.922 134.112C162.922 133.312 163.082 132.608 163.402 132C163.733 131.381 164.186 130.901 164.762 130.56C165.338 130.219 165.999 130.048 166.746 130.048C167.823 130.048 168.671 130.395 169.29 131.088C169.909 131.771 170.218 132.715 170.218 133.92V134.464H164.49C164.607 136.085 165.466 136.896 167.066 136.896C167.514 136.896 167.951 136.827 168.378 136.688C168.815 136.549 169.226 136.32 169.61 136L170.09 137.12C169.738 137.44 169.285 137.691 168.73 137.872C168.175 138.053 167.615 138.144 167.05 138.144ZM166.81 131.184C166.138 131.184 165.605 131.392 165.21 131.808C164.815 132.224 164.575 132.779 164.49 133.472H168.858C168.826 132.747 168.634 132.187 168.282 131.792C167.93 131.387 167.439 131.184 166.81 131.184ZM174.716 138.144C174.076 138.144 173.478 138.064 172.924 137.904C172.369 137.733 171.905 137.499 171.532 137.2L171.996 136.112C172.39 136.389 172.822 136.603 173.292 136.752C173.772 136.901 174.252 136.976 174.732 136.976C175.297 136.976 175.724 136.875 176.012 136.672C176.3 136.469 176.444 136.197 176.444 135.856C176.444 135.579 176.348 135.365 176.156 135.216C175.964 135.056 175.676 134.933 175.292 134.848L173.772 134.544C172.428 134.267 171.756 133.573 171.756 132.464C171.756 131.728 172.049 131.141 172.636 130.704C173.222 130.267 173.99 130.048 174.94 130.048C175.484 130.048 176.001 130.128 176.492 130.288C176.993 130.448 177.409 130.688 177.74 131.008L177.276 132.096C176.956 131.819 176.588 131.605 176.172 131.456C175.756 131.307 175.345 131.232 174.94 131.232C174.385 131.232 173.964 131.339 173.676 131.552C173.388 131.755 173.244 132.032 173.244 132.384C173.244 132.917 173.596 133.259 174.3 133.408L175.82 133.712C176.513 133.851 177.036 134.085 177.388 134.416C177.75 134.747 177.932 135.195 177.932 135.76C177.932 136.507 177.638 137.093 177.052 137.52C176.465 137.936 175.686 138.144 174.716 138.144ZM182.98 138.144C181.998 138.144 181.268 137.893 180.788 137.392C180.308 136.891 180.068 136.165 180.068 135.216V131.44H178.548V130.192H180.068V127.84H181.684V130.192H184.1V131.44H181.684V135.088C181.684 135.653 181.801 136.08 182.036 136.368C182.281 136.656 182.676 136.8 183.22 136.8C183.39 136.8 183.556 136.784 183.716 136.752C183.876 136.709 184.036 136.661 184.196 136.608L184.452 137.824C184.292 137.92 184.068 137.995 183.78 138.048C183.502 138.112 183.236 138.144 182.98 138.144ZM189.081 138.144C187.801 138.144 186.793 137.787 186.057 137.072C185.321 136.347 184.953 135.36 184.953 134.112C184.953 133.312 185.113 132.608 185.433 132C185.764 131.381 186.217 130.901 186.793 130.56C187.369 130.219 188.031 130.048 188.777 130.048C189.855 130.048 190.703 130.395 191.321 131.088C191.94 131.771 192.249 132.715 192.249 133.92V134.464H186.521C186.639 136.085 187.497 136.896 189.097 136.896C189.545 136.896 189.983 136.827 190.409 136.688C190.847 136.549 191.257 136.32 191.641 136L192.121 137.12C191.769 137.44 191.316 137.691 190.761 137.872C190.207 138.053 189.647 138.144 189.081 138.144ZM188.841 131.184C188.169 131.184 187.636 131.392 187.241 131.808C186.847 132.224 186.607 132.779 186.521 133.472H190.889C190.857 132.747 190.665 132.187 190.313 131.792C189.961 131.387 189.471 131.184 188.841 131.184ZM194.011 138V130.192H195.579V131.584C195.984 130.656 196.827 130.139 198.107 130.032L198.635 130L198.747 131.376L197.771 131.472C196.352 131.611 195.643 132.341 195.643 133.664V138H194.011ZM202.846 138.144C202.164 138.144 201.561 137.984 201.038 137.664C200.526 137.333 200.126 136.864 199.838 136.256C199.55 135.648 199.406 134.928 199.406 134.096C199.406 133.264 199.55 132.549 199.838 131.952C200.126 131.344 200.526 130.875 201.038 130.544C201.55 130.213 202.153 130.048 202.846 130.048C203.433 130.048 203.956 130.176 204.414 130.432C204.873 130.688 205.214 131.035 205.438 131.472V126.72H207.054V138H205.47V136.64C205.246 137.109 204.9 137.477 204.43 137.744C203.972 138.011 203.444 138.144 202.846 138.144ZM203.262 136.896C203.924 136.896 204.457 136.656 204.862 136.176C205.268 135.696 205.47 135.003 205.47 134.096C205.47 133.189 205.268 132.501 204.862 132.032C204.457 131.552 203.924 131.312 203.262 131.312C202.59 131.312 202.052 131.552 201.646 132.032C201.241 132.501 201.038 133.189 201.038 134.096C201.038 135.003 201.241 135.696 201.646 136.176C202.052 136.656 202.59 136.896 203.262 136.896ZM211.82 138.144C211.276 138.144 210.79 138.037 210.364 137.824C209.937 137.611 209.596 137.323 209.34 136.96C209.094 136.597 208.972 136.187 208.972 135.728C208.972 135.152 209.116 134.699 209.404 134.368C209.702 134.037 210.188 133.797 210.86 133.648C211.542 133.499 212.46 133.424 213.612 133.424H214.156V133.008C214.156 132.4 214.028 131.963 213.772 131.696C213.516 131.429 213.094 131.296 212.508 131.296C212.06 131.296 211.612 131.365 211.164 131.504C210.716 131.632 210.257 131.84 209.788 132.128L209.292 130.992C209.697 130.704 210.204 130.475 210.812 130.304C211.42 130.133 212.001 130.048 212.556 130.048C213.622 130.048 214.412 130.304 214.924 130.816C215.436 131.317 215.692 132.107 215.692 133.184V138H214.172V136.704C213.98 137.152 213.681 137.504 213.276 137.76C212.87 138.016 212.385 138.144 211.82 138.144ZM212.14 136.992C212.716 136.992 213.196 136.789 213.58 136.384C213.964 135.979 214.156 135.467 214.156 134.848V134.416H213.628C212.849 134.416 212.236 134.453 211.788 134.528C211.35 134.603 211.036 134.731 210.844 134.912C210.662 135.083 210.572 135.323 210.572 135.632C210.572 136.037 210.71 136.368 210.988 136.624C211.265 136.869 211.649 136.992 212.14 136.992ZM218.639 140.88L220.031 137.792L216.767 130.192H218.495L220.895 136.128L223.327 130.192H224.991L220.335 140.88H218.639Z" fill="white"/>
<path opacity="0.842657" fill-rule="evenodd" clip-rule="evenodd" d="M186 46V53C186 65.7025 196.297 76 209 76H216H223C235.703 76 246 65.7025 246 53V46V39C246 26.2975 235.703 16 223 16H216H209C196.297 16 186 26.2975 186 39V46Z" fill="#8280FF"/>
<path opacity="0.587821" fill-rule="evenodd" clip-rule="evenodd" d="M206.667 39.3333C206.667 42.2789 209.055 44.6667 212 44.6667C214.946 44.6667 217.333 42.2789 217.333 39.3333C217.333 36.3878 214.946 34 212 34C209.055 34 206.667 36.3878 206.667 39.3333ZM220 44.6667C220 46.8758 221.791 48.6667 224 48.6667C226.209 48.6667 228 46.8758 228 44.6667C228 42.4575 226.209 40.6667 224 40.6667C221.791 40.6667 220 42.4575 220 44.6667Z" fill="white"/>
<path fill-rule="evenodd" clip-rule="evenodd" d="M211.978 47.3333C205.683 47.3333 200.518 50.5687 200.001 56.9323C199.973 57.2789 200.636 58 200.97 58H222.996C223.997 58 224.013 57.1939 223.997 56.9333C223.607 50.3909 218.362 47.3333 211.978 47.3333ZM231.275 58L226.133 58C226.133 54.9987 225.142 52.2291 223.468 50.0008C228.01 50.0505 231.719 52.3468 231.998 57.2C232.009 57.3955 231.998 58 231.275 58Z" fill="white"/>
<path opacity="0.7" d="M20.064 32V22.112H16.064V20.72H25.712V22.112H21.712V32H20.064ZM29.0749 32.144C28.2855 32.144 27.6029 31.9787 27.0269 31.648C26.4509 31.3173 26.0029 30.8533 25.6829 30.256C25.3735 29.648 25.2189 28.928 25.2189 28.096C25.2189 27.264 25.3735 26.5493 25.6829 25.952C26.0029 25.344 26.4509 24.8747 27.0269 24.544C27.6029 24.2133 28.2855 24.048 29.0749 24.048C29.8429 24.048 30.5149 24.2133 31.0909 24.544C31.6669 24.8747 32.1149 25.344 32.4349 25.952C32.7549 26.5493 32.9149 27.264 32.9149 28.096C32.9149 28.928 32.7549 29.648 32.4349 30.256C32.1149 30.8533 31.6669 31.3173 31.0909 31.648C30.5149 31.9787 29.8429 32.144 29.0749 32.144ZM29.0749 30.896C29.7362 30.896 30.2695 30.656 30.6749 30.176C31.0802 29.696 31.2829 29.0027 31.2829 28.096C31.2829 27.1893 31.0802 26.5013 30.6749 26.032C30.2695 25.552 29.7362 25.312 29.0749 25.312C28.4029 25.312 27.8642 25.552 27.4589 26.032C27.0535 26.5013 26.8509 27.1893 26.8509 28.096C26.8509 29.0027 27.0535 29.696 27.4589 30.176C27.8642 30.656 28.4029 30.896 29.0749 30.896ZM37.9796 32.144C36.9983 32.144 36.2676 31.8933 35.7876 31.392C35.3076 30.8907 35.0676 30.1653 35.0676 29.216V25.44H33.5476V24.192H35.0676V21.84H36.6836V24.192H39.0996V25.44H36.6836V29.088C36.6836 29.6533 36.801 30.08 37.0356 30.368C37.281 30.656 37.6756 30.8 38.2196 30.8C38.3903 30.8 38.5556 30.784 38.7156 30.752C38.8756 30.7093 39.0356 30.6613 39.1956 30.608L39.4516 31.824C39.2916 31.92 39.0676 31.9947 38.7796 32.048C38.5023 32.112 38.2356 32.144 37.9796 32.144ZM42.9914 32.144C42.4474 32.144 41.962 32.0373 41.5354 31.824C41.1087 31.6107 40.7674 31.3227 40.5114 30.96C40.266 30.5973 40.1434 30.1867 40.1434 29.728C40.1434 29.152 40.2874 28.6987 40.5754 28.368C40.874 28.0373 41.3594 27.7973 42.0314 27.648C42.714 27.4987 43.6314 27.424 44.7834 27.424H45.3274V27.008C45.3274 26.4 45.1994 25.9627 44.9434 25.696C44.6874 25.4293 44.266 25.296 43.6794 25.296C43.2314 25.296 42.7834 25.3653 42.3354 25.504C41.8874 25.632 41.4287 25.84 40.9594 26.128L40.4634 24.992C40.8687 24.704 41.3754 24.4747 41.9834 24.304C42.5914 24.1333 43.1727 24.048 43.7274 24.048C44.794 24.048 45.5834 24.304 46.0954 24.816C46.6074 25.3173 46.8634 26.1067 46.8634 27.184V32H45.3434V30.704C45.1514 31.152 44.8527 31.504 44.4474 31.76C44.042 32.016 43.5567 32.144 42.9914 32.144ZM43.3114 30.992C43.8874 30.992 44.3674 30.7893 44.7514 30.384C45.1354 29.9787 45.3274 29.4667 45.3274 28.848V28.416H44.7994C44.0207 28.416 43.4074 28.4533 42.9594 28.528C42.522 28.6027 42.2074 28.7307 42.0154 28.912C41.834 29.0827 41.7434 29.3227 41.7434 29.632C41.7434 30.0373 41.882 30.368 42.1594 30.624C42.4367 30.8693 42.8207 30.992 43.3114 30.992ZM51.6331 32.144C50.7798 32.144 50.1398 31.904 49.7131 31.424C49.2971 30.944 49.0891 30.24 49.0891 29.312V20.72H50.7051V29.216C50.7051 30.272 51.1371 30.8 52.0011 30.8C52.1291 30.8 52.2465 30.7947 52.3531 30.784C52.4705 30.7733 52.5878 30.752 52.7051 30.72L52.6731 32.016C52.3105 32.1013 51.9638 32.144 51.6331 32.144ZM62.9189 32.144C61.4149 32.144 60.2629 31.7493 59.4629 30.96C58.6735 30.16 58.2789 28.992 58.2789 27.456V20.72H59.9429V27.424C59.9429 29.6107 60.9349 30.704 62.9189 30.704C64.9029 30.704 65.8949 29.6107 65.8949 27.424V20.72H67.5269V27.456C67.5269 28.992 67.1375 30.16 66.3589 30.96C65.5802 31.7493 64.4335 32.144 62.9189 32.144ZM72.6533 32.144C72.0133 32.144 71.4159 32.064 70.8613 31.904C70.3066 31.7333 69.8426 31.4987 69.4693 31.2L69.9333 30.112C70.3279 30.3893 70.7599 30.6027 71.2293 30.752C71.7093 30.9013 72.1893 30.976 72.6693 30.976C73.2346 30.976 73.6613 30.8747 73.9493 30.672C74.2373 30.4693 74.3813 30.1973 74.3813 29.856C74.3813 29.5787 74.2853 29.3653 74.0933 29.216C73.9013 29.056 73.6133 28.9333 73.2293 28.848L71.7093 28.544C70.3653 28.2667 69.6933 27.5733 69.6933 26.464C69.6933 25.728 69.9866 25.1413 70.5733 24.704C71.1599 24.2667 71.9279 24.048 72.8773 24.048C73.4213 24.048 73.9386 24.128 74.4293 24.288C74.9306 24.448 75.3466 24.688 75.6773 25.008L75.2133 26.096C74.8933 25.8187 74.5253 25.6053 74.1093 25.456C73.6933 25.3067 73.2826 25.232 72.8773 25.232C72.3226 25.232 71.9013 25.3387 71.6133 25.552C71.3253 25.7547 71.1813 26.032 71.1813 26.384C71.1813 26.9173 71.5333 27.2587 72.2373 27.408L73.7573 27.712C74.4506 27.8507 74.9733 28.0853 75.3253 28.416C75.6879 28.7467 75.8693 29.1947 75.8693 29.76C75.8693 30.5067 75.5759 31.0933 74.9893 31.52C74.4026 31.936 73.6239 32.144 72.6533 32.144ZM81.3313 32.144C80.0513 32.144 79.0433 31.7867 78.3073 31.072C77.5713 30.3467 77.2033 29.36 77.2033 28.112C77.2033 27.312 77.3633 26.608 77.6833 26C78.0139 25.3813 78.4673 24.9013 79.0433 24.56C79.6193 24.2187 80.2806 24.048 81.0273 24.048C82.1046 24.048 82.9526 24.3947 83.5713 25.088C84.1899 25.7707 84.4993 26.7147 84.4993 27.92V28.464H78.7713C78.8886 30.0853 79.7473 30.896 81.3473 30.896C81.7953 30.896 82.2326 30.8267 82.6593 30.688C83.0966 30.5493 83.5073 30.32 83.8913 30L84.3713 31.12C84.0193 31.44 83.5659 31.6907 83.0113 31.872C82.4566 32.0533 81.8966 32.144 81.3313 32.144ZM81.0913 25.184C80.4193 25.184 79.8859 25.392 79.4913 25.808C79.0966 26.224 78.8566 26.7787 78.7713 27.472H83.1393C83.1073 26.7467 82.9153 26.1867 82.5633 25.792C82.2113 25.3867 81.7206 25.184 81.0913 25.184ZM86.261 32V24.192H87.829V25.584C88.2343 24.656 89.077 24.1387 90.357 24.032L90.885 24L90.997 25.376L90.021 25.472C88.6023 25.6107 87.893 26.3413 87.893 27.664V32H86.261Z" fill="white"/>
<path d="M25.772 82V78.248H17.176V75.616L26.388 62.26H29.356V75.28H32.128V78.248H29.356V82H25.772ZM25.772 75.28V67.748L20.62 75.28H25.772ZM42.1891 82.28C39.8557 82.28 38.0731 81.4027 36.8411 79.648C35.6091 77.8747 34.9931 75.3547 34.9931 72.088C34.9931 68.784 35.6091 66.2733 36.8411 64.556C38.0731 62.8387 39.8557 61.98 42.1891 61.98C44.5411 61.98 46.3237 62.8387 47.5371 64.556C48.7691 66.2733 49.3851 68.7747 49.3851 72.06C49.3851 75.3453 48.7691 77.8747 47.5371 79.648C46.3051 81.4027 44.5224 82.28 42.1891 82.28ZM42.1891 79.34C43.4584 79.34 44.3917 78.7613 44.9891 77.604C45.6051 76.428 45.9131 74.58 45.9131 72.06C45.9131 69.5587 45.6051 67.748 44.9891 66.628C44.3917 65.4893 43.4584 64.92 42.1891 64.92C40.9384 64.92 40.0051 65.4893 39.3891 66.628C38.7731 67.748 38.4651 69.5587 38.4651 72.06C38.4651 74.58 38.7731 76.428 39.3891 77.604C40.0051 78.7613 40.9384 79.34 42.1891 79.34ZM54.7981 85.724L53.3701 84.604C53.8368 84.1373 54.1821 83.6893 54.4061 83.26C54.6488 82.8493 54.8168 82.4293 54.9101 82H53.0901V78.108H57.0101V80.684C57.0101 81.636 56.8421 82.504 56.5061 83.288C56.1888 84.0907 55.6195 84.9027 54.7981 85.724ZM68.6514 82.28C66.2061 82.28 64.3114 81.4213 62.9674 79.704C61.6421 77.9867 60.9794 75.5787 60.9794 72.48C60.9794 69.1387 61.7261 66.5533 63.2194 64.724C64.7314 62.8947 66.8128 61.98 69.4634 61.98C70.5088 61.98 71.5448 62.176 72.5714 62.568C73.5981 62.9413 74.4754 63.4827 75.2034 64.192L74.0274 66.88C73.3368 66.2453 72.5994 65.7787 71.8154 65.48C71.0314 65.1627 70.2288 65.004 69.4074 65.004C67.7834 65.004 66.5421 65.5733 65.6834 66.712C64.8248 67.8507 64.3954 69.5493 64.3954 71.808V72.62C64.7874 71.5933 65.4221 70.7907 66.2994 70.212C67.1768 69.6333 68.1848 69.344 69.3234 69.344C70.4621 69.344 71.4701 69.6147 72.3474 70.156C73.2248 70.6973 73.9154 71.444 74.4194 72.396C74.9234 73.348 75.1754 74.44 75.1754 75.672C75.1754 76.9413 74.8954 78.08 74.3354 79.088C73.7941 80.0773 73.0288 80.8613 72.0394 81.44C71.0688 82 69.9394 82.28 68.6514 82.28ZM68.4554 79.424C69.4634 79.424 70.2754 79.0973 70.8914 78.444C71.5261 77.772 71.8434 76.8947 71.8434 75.812C71.8434 74.7293 71.5261 73.852 70.8914 73.18C70.2754 72.508 69.4634 72.172 68.4554 72.172C67.4474 72.172 66.6261 72.508 65.9914 73.18C65.3754 73.852 65.0674 74.7293 65.0674 75.812C65.0674 76.8947 65.3754 77.772 65.9914 78.444C66.6261 79.0973 67.4474 79.424 68.4554 79.424ZM85.7125 82.28C83.4165 82.28 81.6152 81.7853 80.3085 80.796C79.0205 79.8067 78.3765 78.4347 78.3765 76.68C78.3765 75.4853 78.6845 74.468 79.3005 73.628C79.9352 72.788 80.7565 72.2 81.7645 71.864C80.8685 71.472 80.1592 70.8747 79.6365 70.072C79.1325 69.2693 78.8805 68.3453 78.8805 67.3C78.8805 65.6387 79.4965 64.3413 80.7285 63.408C81.9605 62.456 83.6218 61.98 85.7125 61.98C87.8218 61.98 89.4925 62.456 90.7245 63.408C91.9565 64.3413 92.5725 65.6387 92.5725 67.3C92.5725 68.3453 92.3112 69.2787 91.7885 70.1C91.2845 70.9027 90.5938 71.4907 89.7165 71.864C90.7245 72.2 91.5272 72.7973 92.1245 73.656C92.7405 74.496 93.0485 75.504 93.0485 76.68C93.0485 78.4347 92.3952 79.8067 91.0885 80.796C89.8005 81.7853 88.0085 82.28 85.7125 82.28ZM85.7125 70.604C86.8138 70.604 87.6725 70.3427 88.2885 69.82C88.9232 69.2973 89.2405 68.5787 89.2405 67.664C89.2405 66.768 88.9232 66.068 88.2885 65.564C87.6725 65.0413 86.8138 64.78 85.7125 64.78C84.6112 64.78 83.7525 65.0413 83.1365 65.564C82.5205 66.068 82.2125 66.768 82.2125 67.664C82.2125 68.5787 82.5205 69.2973 83.1365 69.82C83.7525 70.3427 84.6112 70.604 85.7125 70.604ZM85.7125 79.48C88.3818 79.48 89.7165 78.4627 89.7165 76.428C89.7165 74.412 88.3818 73.404 85.7125 73.404C84.4058 73.404 83.4072 73.656 82.7165 74.16C82.0445 74.664 81.7085 75.42 81.7085 76.428C81.7085 77.436 82.0445 78.2013 82.7165 78.724C83.4072 79.228 84.4058 79.48 85.7125 79.48ZM101.99 82.28C100.944 82.28 99.9082 82.084 98.8816 81.692C97.8549 81.2813 96.9682 80.7307 96.2216 80.04L97.4256 77.352C98.0976 77.9867 98.8256 78.4627 99.6096 78.78C100.412 79.0973 101.215 79.256 102.018 79.256C103.66 79.256 104.911 78.6867 105.77 77.548C106.628 76.4093 107.058 74.7107 107.058 72.452V71.612C106.684 72.6387 106.059 73.4507 105.182 74.048C104.304 74.6267 103.278 74.916 102.102 74.916C100.982 74.916 99.9829 74.6453 99.1056 74.104C98.2282 73.5627 97.5282 72.816 97.0056 71.864C96.5016 70.8933 96.2496 69.8013 96.2496 68.588C96.2496 67.3 96.5296 66.1613 97.0896 65.172C97.6496 64.1827 98.4149 63.408 99.3856 62.848C100.375 62.2693 101.504 61.98 102.774 61.98C105.238 61.98 107.132 62.8387 108.458 64.556C109.783 66.2547 110.446 68.6627 110.446 71.78C110.446 75.1027 109.699 77.688 108.206 79.536C106.712 81.3653 104.64 82.28 101.99 82.28ZM102.998 72.06C104.006 72.06 104.818 71.7333 105.434 71.08C106.068 70.408 106.386 69.5307 106.386 68.448C106.386 67.3653 106.068 66.488 105.434 65.816C104.818 65.144 104.006 64.808 102.998 64.808C101.99 64.808 101.168 65.144 100.534 65.816C99.9176 66.488 99.6096 67.3653 99.6096 68.448C99.6096 69.5307 99.9176 70.408 100.534 71.08C101.168 71.7333 101.99 72.06 102.998 72.06Z" fill="white"/>
</svg>
