<svg width="262" height="161" viewBox="0 0 262 161" fill="none" xmlns="http://www.w3.org/2000/svg">
<rect x="0.5" y="0.5" width="261" height="160" rx="13.5" fill="#273142" stroke="#313D4F"/>
<path d="M32 139L34.29 136.71L29.41 131.83L25.41 135.83L18 128.41L19.41 127L25.41 133L29.41 129L35.71 135.29L38 133V139H32Z" fill="#F93C65"/>
<path d="M53.824 138V135.712H48.752V134.48L54.112 126.72H55.472V134.32H57.12V135.712H55.472V138H53.824ZM53.824 134.32V129.312L50.4 134.32H53.824ZM58.5378 138V136.096H60.4418V138H58.5378ZM66.0146 138.144C65.2573 138.144 64.5373 138.032 63.8546 137.808C63.172 137.573 62.6013 137.248 62.1426 136.832L62.7186 135.552C63.22 135.957 63.7373 136.256 64.2706 136.448C64.804 136.64 65.3693 136.736 65.9666 136.736C66.7346 136.736 67.316 136.571 67.7106 136.24C68.116 135.909 68.3186 135.435 68.3186 134.816C68.3186 134.197 68.116 133.739 67.7106 133.44C67.316 133.141 66.74 132.992 65.9826 132.992H64.2386V131.6H65.8226C66.4946 131.6 67.0226 131.429 67.4066 131.088C67.8013 130.747 67.9986 130.277 67.9986 129.68C67.9986 129.136 67.8173 128.72 67.4546 128.432C67.092 128.133 66.5746 127.984 65.9026 127.984C64.7613 127.984 63.764 128.395 62.9106 129.216L62.3346 127.952C62.772 127.515 63.316 127.179 63.9666 126.944C64.628 126.699 65.316 126.576 66.0306 126.576C67.1613 126.576 68.0413 126.837 68.6706 127.36C69.3 127.872 69.6146 128.587 69.6146 129.504C69.6146 130.123 69.4546 130.667 69.1346 131.136C68.8253 131.605 68.3933 131.947 67.8386 132.16C68.5106 132.331 69.028 132.661 69.3906 133.152C69.7533 133.632 69.9346 134.224 69.9346 134.928C69.9346 135.92 69.5826 136.704 68.8786 137.28C68.1853 137.856 67.2306 138.144 66.0146 138.144ZM75.7204 138.416L74.6324 137.776L81.2404 126.304L82.3284 126.944L75.7204 138.416ZM74.5684 133.472C73.6937 133.472 73.011 133.168 72.5204 132.56C72.0297 131.941 71.7844 131.093 71.7844 130.016C71.7844 128.939 72.0297 128.096 72.5204 127.488C73.0217 126.88 73.7044 126.576 74.5684 126.576C75.4324 126.576 76.1097 126.88 76.6004 127.488C77.1017 128.096 77.3524 128.939 77.3524 130.016C77.3524 131.093 77.107 131.941 76.6164 132.56C76.1257 133.168 75.443 133.472 74.5684 133.472ZM74.5684 132.336C75.0164 132.336 75.363 132.144 75.6084 131.76C75.8644 131.376 75.9924 130.795 75.9924 130.016C75.9924 129.237 75.8644 128.656 75.6084 128.272C75.363 127.888 75.0164 127.696 74.5684 127.696C74.1204 127.696 73.7684 127.888 73.5124 128.272C73.267 128.656 73.1444 129.237 73.1444 130.016C73.1444 130.805 73.267 131.392 73.5124 131.776C73.7684 132.149 74.1204 132.336 74.5684 132.336ZM82.3924 138.144C81.5284 138.144 80.851 137.84 80.3604 137.232C79.8697 136.624 79.6244 135.776 79.6244 134.688C79.6244 133.621 79.8697 132.784 80.3604 132.176C80.851 131.557 81.5284 131.248 82.3924 131.248C83.267 131.248 83.9497 131.557 84.4404 132.176C84.931 132.784 85.1764 133.621 85.1764 134.688C85.1764 135.776 84.931 136.624 84.4404 137.232C83.9497 137.84 83.267 138.144 82.3924 138.144ZM82.3924 137.024C82.8404 137.024 83.187 136.832 83.4324 136.448C83.6884 136.064 83.8164 135.477 83.8164 134.688C83.8164 133.92 83.6884 133.344 83.4324 132.96C83.187 132.576 82.8404 132.384 82.3924 132.384C81.9444 132.384 81.5924 132.576 81.3364 132.96C81.091 133.333 80.9684 133.909 80.9684 134.688C80.9684 135.477 81.091 136.064 81.3364 136.448C81.5924 136.832 81.9444 137.024 82.3924 137.024Z" fill="#F93C65"/>
<path d="M91.4839 138V126.72H95.4679C97.3239 126.72 98.7532 127.205 99.7559 128.176C100.769 129.147 101.276 130.539 101.276 132.352C101.276 134.165 100.769 135.563 99.7559 136.544C98.7532 137.515 97.3239 138 95.4679 138H91.4839ZM93.1479 136.608H95.3719C98.1559 136.608 99.5479 135.189 99.5479 132.352C99.5479 129.525 98.1559 128.112 95.3719 128.112H93.1479V136.608ZM106.716 138.144C105.926 138.144 105.244 137.979 104.668 137.648C104.092 137.317 103.644 136.853 103.324 136.256C103.014 135.648 102.86 134.928 102.86 134.096C102.86 133.264 103.014 132.549 103.324 131.952C103.644 131.344 104.092 130.875 104.668 130.544C105.244 130.213 105.926 130.048 106.716 130.048C107.484 130.048 108.156 130.213 108.732 130.544C109.308 130.875 109.756 131.344 110.076 131.952C110.396 132.549 110.556 133.264 110.556 134.096C110.556 134.928 110.396 135.648 110.076 136.256C109.756 136.853 109.308 137.317 108.732 137.648C108.156 137.979 107.484 138.144 106.716 138.144ZM106.716 136.896C107.377 136.896 107.91 136.656 108.316 136.176C108.721 135.696 108.924 135.003 108.924 134.096C108.924 133.189 108.721 132.501 108.316 132.032C107.91 131.552 107.377 131.312 106.716 131.312C106.044 131.312 105.505 131.552 105.1 132.032C104.694 132.501 104.492 133.189 104.492 134.096C104.492 135.003 104.694 135.696 105.1 136.176C105.505 136.656 106.044 136.896 106.716 136.896ZM114.342 138L111.366 130.192H113.03L115.126 136.112L117.286 130.192H118.534L120.662 136.144L122.79 130.192H124.374L121.398 138H119.926L117.862 132.416L115.814 138H114.342ZM125.761 138V130.192H127.329V131.488C127.596 131.019 127.958 130.661 128.417 130.416C128.886 130.171 129.409 130.048 129.985 130.048C131.83 130.048 132.753 131.093 132.753 133.184V138H131.137V133.28C131.137 132.608 131.004 132.117 130.737 131.808C130.481 131.499 130.076 131.344 129.521 131.344C128.87 131.344 128.348 131.552 127.953 131.968C127.569 132.373 127.377 132.912 127.377 133.584V138H125.761ZM139.647 138V131.44H138.127V130.192H139.647V130.048C139.647 128.971 139.919 128.16 140.463 127.616C141.018 127.072 141.866 126.768 143.007 126.704L143.711 126.656L143.823 127.872L143.087 127.92C142.436 127.963 141.967 128.139 141.679 128.448C141.402 128.757 141.263 129.216 141.263 129.824V130.192H143.455V131.44H141.263V138H139.647ZM144.73 138V130.192H146.298V131.584C146.703 130.656 147.546 130.139 148.826 130.032L149.354 130L149.466 131.376L148.49 131.472C147.071 131.611 146.362 132.341 146.362 133.664V138H144.73ZM153.981 138.144C153.192 138.144 152.509 137.979 151.933 137.648C151.357 137.317 150.909 136.853 150.589 136.256C150.28 135.648 150.125 134.928 150.125 134.096C150.125 133.264 150.28 132.549 150.589 131.952C150.909 131.344 151.357 130.875 151.933 130.544C152.509 130.213 153.192 130.048 153.981 130.048C154.749 130.048 155.421 130.213 155.997 130.544C156.573 130.875 157.021 131.344 157.341 131.952C157.661 132.549 157.821 133.264 157.821 134.096C157.821 134.928 157.661 135.648 157.341 136.256C157.021 136.853 156.573 137.317 155.997 137.648C155.421 137.979 154.749 138.144 153.981 138.144ZM153.981 136.896C154.642 136.896 155.176 136.656 155.581 136.176C155.986 135.696 156.189 135.003 156.189 134.096C156.189 133.189 155.986 132.501 155.581 132.032C155.176 131.552 154.642 131.312 153.981 131.312C153.309 131.312 152.77 131.552 152.365 132.032C151.96 132.501 151.757 133.189 151.757 134.096C151.757 135.003 151.96 135.696 152.365 136.176C152.77 136.656 153.309 136.896 153.981 136.896ZM159.668 138V130.192H161.236V131.456C161.471 131.008 161.796 130.661 162.212 130.416C162.628 130.171 163.113 130.048 163.668 130.048C164.863 130.048 165.636 130.571 165.988 131.616C166.233 131.125 166.585 130.741 167.044 130.464C167.503 130.187 168.025 130.048 168.612 130.048C170.361 130.048 171.236 131.093 171.236 133.184V138H169.62V133.264C169.62 132.603 169.503 132.117 169.268 131.808C169.044 131.499 168.671 131.344 168.148 131.344C167.561 131.344 167.097 131.552 166.756 131.968C166.415 132.373 166.244 132.928 166.244 133.632V138H164.628V133.264C164.628 132.603 164.516 132.117 164.292 131.808C164.068 131.499 163.695 131.344 163.172 131.344C162.585 131.344 162.121 131.552 161.78 131.968C161.449 132.373 161.284 132.928 161.284 133.632V138H159.668ZM178.499 140.88L179.891 137.792L176.627 130.192H178.355L180.755 136.128L183.187 130.192H184.851L180.195 140.88H178.499ZM189.534 138.144C188.254 138.144 187.246 137.787 186.51 137.072C185.774 136.347 185.406 135.36 185.406 134.112C185.406 133.312 185.566 132.608 185.886 132C186.217 131.381 186.67 130.901 187.246 130.56C187.822 130.219 188.484 130.048 189.23 130.048C190.308 130.048 191.156 130.395 191.774 131.088C192.393 131.771 192.702 132.715 192.702 133.92V134.464H186.974C187.092 136.085 187.95 136.896 189.55 136.896C189.998 136.896 190.436 136.827 190.862 136.688C191.3 136.549 191.71 136.32 192.094 136L192.574 137.12C192.222 137.44 191.769 137.691 191.214 137.872C190.66 138.053 190.1 138.144 189.534 138.144ZM189.294 131.184C188.622 131.184 188.089 131.392 187.694 131.808C187.3 132.224 187.06 132.779 186.974 133.472H191.342C191.31 132.747 191.118 132.187 190.766 131.792C190.414 131.387 189.924 131.184 189.294 131.184ZM197.2 138.144C196.56 138.144 195.963 138.064 195.408 137.904C194.853 137.733 194.389 137.499 194.016 137.2L194.48 136.112C194.875 136.389 195.307 136.603 195.776 136.752C196.256 136.901 196.736 136.976 197.216 136.976C197.781 136.976 198.208 136.875 198.496 136.672C198.784 136.469 198.928 136.197 198.928 135.856C198.928 135.579 198.832 135.365 198.64 135.216C198.448 135.056 198.16 134.933 197.776 134.848L196.256 134.544C194.912 134.267 194.24 133.573 194.24 132.464C194.24 131.728 194.533 131.141 195.12 130.704C195.707 130.267 196.475 130.048 197.424 130.048C197.968 130.048 198.485 130.128 198.976 130.288C199.477 130.448 199.893 130.688 200.224 131.008L199.76 132.096C199.44 131.819 199.072 131.605 198.656 131.456C198.24 131.307 197.829 131.232 197.424 131.232C196.869 131.232 196.448 131.339 196.16 131.552C195.872 131.755 195.728 132.032 195.728 132.384C195.728 132.917 196.08 133.259 196.784 133.408L198.304 133.712C198.997 133.851 199.52 134.085 199.872 134.416C200.235 134.747 200.416 135.195 200.416 135.76C200.416 136.507 200.123 137.093 199.536 137.52C198.949 137.936 198.171 138.144 197.2 138.144ZM205.464 138.144C204.483 138.144 203.752 137.893 203.272 137.392C202.792 136.891 202.552 136.165 202.552 135.216V131.44H201.032V130.192H202.552V127.84H204.168V130.192H206.584V131.44H204.168V135.088C204.168 135.653 204.285 136.08 204.52 136.368C204.765 136.656 205.16 136.8 205.704 136.8C205.875 136.8 206.04 136.784 206.2 136.752C206.36 136.709 206.52 136.661 206.68 136.608L206.936 137.824C206.776 137.92 206.552 137.995 206.264 138.048C205.987 138.112 205.72 138.144 205.464 138.144ZM211.566 138.144C210.286 138.144 209.278 137.787 208.542 137.072C207.806 136.347 207.438 135.36 207.438 134.112C207.438 133.312 207.598 132.608 207.918 132C208.248 131.381 208.702 130.901 209.278 130.56C209.854 130.219 210.515 130.048 211.262 130.048C212.339 130.048 213.187 130.395 213.806 131.088C214.424 131.771 214.734 132.715 214.734 133.92V134.464H209.006C209.123 136.085 209.982 136.896 211.582 136.896C212.03 136.896 212.467 136.827 212.894 136.688C213.331 136.549 213.742 136.32 214.126 136L214.606 137.12C214.254 137.44 213.8 137.691 213.246 137.872C212.691 138.053 212.131 138.144 211.566 138.144ZM211.326 131.184C210.654 131.184 210.12 131.392 209.726 131.808C209.331 132.224 209.091 132.779 209.006 133.472H213.374C213.342 132.747 213.15 132.187 212.798 131.792C212.446 131.387 211.955 131.184 211.326 131.184ZM216.495 138V130.192H218.063V131.584C218.469 130.656 219.311 130.139 220.591 130.032L221.119 130L221.231 131.376L220.255 131.472C218.837 131.611 218.127 132.341 218.127 133.664V138H216.495ZM225.331 138.144C224.648 138.144 224.045 137.984 223.523 137.664C223.011 137.333 222.611 136.864 222.323 136.256C222.035 135.648 221.891 134.928 221.891 134.096C221.891 133.264 222.035 132.549 222.323 131.952C222.611 131.344 223.011 130.875 223.523 130.544C224.035 130.213 224.637 130.048 225.331 130.048C225.917 130.048 226.44 130.176 226.899 130.432C227.357 130.688 227.699 131.035 227.923 131.472V126.72H229.539V138H227.955V136.64C227.731 137.109 227.384 137.477 226.915 137.744C226.456 138.011 225.928 138.144 225.331 138.144ZM225.747 136.896C226.408 136.896 226.941 136.656 227.347 136.176C227.752 135.696 227.955 135.003 227.955 134.096C227.955 133.189 227.752 132.501 227.347 132.032C226.941 131.552 226.408 131.312 225.747 131.312C225.075 131.312 224.536 131.552 224.131 132.032C223.725 132.501 223.523 133.189 223.523 134.096C223.523 135.003 223.725 135.696 224.131 136.176C224.536 136.656 225.075 136.896 225.747 136.896ZM234.304 138.144C233.76 138.144 233.275 138.037 232.848 137.824C232.421 137.611 232.08 137.323 231.824 136.96C231.579 136.597 231.456 136.187 231.456 135.728C231.456 135.152 231.6 134.699 231.888 134.368C232.187 134.037 232.672 133.797 233.344 133.648C234.027 133.499 234.944 133.424 236.096 133.424H236.64V133.008C236.64 132.4 236.512 131.963 236.256 131.696C236 131.429 235.579 131.296 234.992 131.296C234.544 131.296 234.096 131.365 233.648 131.504C233.2 131.632 232.741 131.84 232.272 132.128L231.776 130.992C232.181 130.704 232.688 130.475 233.296 130.304C233.904 130.133 234.485 130.048 235.04 130.048C236.107 130.048 236.896 130.304 237.408 130.816C237.92 131.317 238.176 132.107 238.176 133.184V138H236.656V136.704C236.464 137.152 236.165 137.504 235.76 137.76C235.355 138.016 234.869 138.144 234.304 138.144ZM234.624 136.992C235.2 136.992 235.68 136.789 236.064 136.384C236.448 135.979 236.64 135.467 236.64 134.848V134.416H236.112C235.333 134.416 234.72 134.453 234.272 134.528C233.835 134.603 233.52 134.731 233.328 134.912C233.147 135.083 233.056 135.323 233.056 135.632C233.056 136.037 233.195 136.368 233.472 136.624C233.749 136.869 234.133 136.992 234.624 136.992ZM241.124 140.88L242.516 137.792L239.252 130.192H240.98L243.38 136.128L245.812 130.192H247.476L242.82 140.88H241.124Z" fill="white"/>
<path opacity="0.84" fill-rule="evenodd" clip-rule="evenodd" d="M186 46V53C186 65.7025 196.297 76 209 76H216H223C235.703 76 246 65.7025 246 53V46V39C246 26.2975 235.703 16 223 16H216H209C196.297 16 186 26.2975 186 39V46Z" fill="#4AD991"/>
<path d="M205.111 56.8889H228.444C229.304 56.8889 230 57.5853 230 58.4444C230 59.3036 229.304 60 228.444 60H203.556C202.696 60 202 59.3036 202 58.4444V33.5556C202 32.6964 202.696 32 203.556 32C204.415 32 205.111 32.6964 205.111 33.5556V56.8889Z" fill="white"/>
<path opacity="0.759394" d="M210.913 50.175C210.325 50.8018 209.341 50.8335 208.714 50.2459C208.087 49.6584 208.055 48.6739 208.643 48.0472L214.476 41.825C215.044 41.2188 215.989 41.1663 216.621 41.7056L221.225 45.6344L227.223 38.0361C227.756 37.3618 228.734 37.2467 229.408 37.7791C230.083 38.3114 230.198 39.2896 229.665 39.9639L222.665 48.8305C222.119 49.5231 221.106 49.6227 220.435 49.0499L215.731 45.0358L210.913 50.175Z" fill="white"/>
<path opacity="0.7" d="M21.072 32.144C20.1867 32.144 19.376 32.032 18.64 31.808C17.904 31.5733 17.28 31.248 16.768 30.832L17.296 29.52C17.8293 29.9253 18.4 30.2293 19.008 30.432C19.616 30.6347 20.304 30.736 21.072 30.736C21.9787 30.736 22.6453 30.576 23.072 30.256C23.5093 29.9253 23.728 29.4987 23.728 28.976C23.728 28.5493 23.5733 28.2133 23.264 27.968C22.9547 27.712 22.4373 27.5093 21.712 27.36L20 27.008C18.9867 26.7947 18.2293 26.4427 17.728 25.952C17.2373 25.4613 16.992 24.8 16.992 23.968C16.992 23.296 17.168 22.704 17.52 22.192C17.8827 21.68 18.384 21.2853 19.024 21.008C19.664 20.72 20.4 20.576 21.232 20.576C22 20.576 22.7093 20.6933 23.36 20.928C24.0213 21.152 24.5813 21.4827 25.04 21.92L24.496 23.184C23.5893 22.384 22.496 21.984 21.216 21.984C20.4267 21.984 19.7973 22.16 19.328 22.512C18.8693 22.864 18.64 23.3333 18.64 23.92C18.64 24.368 18.784 24.7253 19.072 24.992C19.36 25.2587 19.84 25.4613 20.512 25.6L22.208 25.952C23.2747 26.176 24.0693 26.5227 24.592 26.992C25.1147 27.4507 25.376 28.0747 25.376 28.864C25.376 29.5253 25.2 30.1013 24.848 30.592C24.496 31.0827 24 31.4667 23.36 31.744C22.72 32.0107 21.9573 32.144 21.072 32.144ZM30.3703 32.144C29.3889 32.144 28.6583 31.8933 28.1783 31.392C27.6983 30.8907 27.4583 30.1653 27.4583 29.216V25.44H25.9383V24.192H27.4583V21.84H29.0743V24.192H31.4903V25.44H29.0743V29.088C29.0743 29.6533 29.1916 30.08 29.4263 30.368C29.6716 30.656 30.0663 30.8 30.6102 30.8C30.7809 30.8 30.9463 30.784 31.1063 30.752C31.2663 30.7093 31.4263 30.6613 31.5863 30.608L31.8423 31.824C31.6823 31.92 31.4583 31.9947 31.1703 32.048C30.8929 32.112 30.6263 32.144 30.3703 32.144ZM32.886 32V24.192H34.454V25.584C34.8593 24.656 35.702 24.1387 36.982 24.032L37.51 24L37.622 25.376L36.646 25.472C35.2273 25.6107 34.518 26.3413 34.518 27.664V32H32.886ZM42.4094 32.144C41.1294 32.144 40.1214 31.7867 39.3854 31.072C38.6494 30.3467 38.2814 29.36 38.2814 28.112C38.2814 27.312 38.4414 26.608 38.7614 26C39.092 25.3813 39.5454 24.9013 40.1214 24.56C40.6974 24.2187 41.3587 24.048 42.1054 24.048C43.1827 24.048 44.0307 24.3947 44.6494 25.088C45.268 25.7707 45.5774 26.7147 45.5774 27.92V28.464H39.8494C39.9667 30.0853 40.8254 30.896 42.4254 30.896C42.8734 30.896 43.3107 30.8267 43.7374 30.688C44.1747 30.5493 44.5854 30.32 44.9694 30L45.4494 31.12C45.0974 31.44 44.644 31.6907 44.0894 31.872C43.5347 32.0533 42.9747 32.144 42.4094 32.144ZM42.1694 25.184C41.4974 25.184 40.964 25.392 40.5694 25.808C40.1747 26.224 39.9347 26.7787 39.8494 27.472H44.2174C44.1854 26.7467 43.9934 26.1867 43.6414 25.792C43.2894 25.3867 42.7987 25.184 42.1694 25.184ZM49.8351 32.144C49.2911 32.144 48.8058 32.0373 48.3791 31.824C47.9525 31.6107 47.6111 31.3227 47.3551 30.96C47.1098 30.5973 46.9871 30.1867 46.9871 29.728C46.9871 29.152 47.1311 28.6987 47.4191 28.368C47.7178 28.0373 48.2031 27.7973 48.8751 27.648C49.5578 27.4987 50.4751 27.424 51.6271 27.424H52.1711V27.008C52.1711 26.4 52.0431 25.9627 51.7871 25.696C51.5311 25.4293 51.1098 25.296 50.5231 25.296C50.0751 25.296 49.6271 25.3653 49.1791 25.504C48.7311 25.632 48.2725 25.84 47.8031 26.128L47.3071 24.992C47.7125 24.704 48.2191 24.4747 48.8271 24.304C49.4351 24.1333 50.0165 24.048 50.5711 24.048C51.6378 24.048 52.4271 24.304 52.9391 24.816C53.4511 25.3173 53.7071 26.1067 53.7071 27.184V32H52.1871V30.704C51.9951 31.152 51.6965 31.504 51.2911 31.76C50.8858 32.016 50.4005 32.144 49.8351 32.144ZM50.1551 30.992C50.7311 30.992 51.2111 30.7893 51.5951 30.384C51.9791 29.9787 52.1711 29.4667 52.1711 28.848V28.416H51.6431C50.8645 28.416 50.2511 28.4533 49.8031 28.528C49.3658 28.6027 49.0511 28.7307 48.8591 28.912C48.6778 29.0827 48.5871 29.3227 48.5871 29.632C48.5871 30.0373 48.7258 30.368 49.0031 30.624C49.2805 30.8693 49.6645 30.992 50.1551 30.992ZM55.9649 32V24.192H57.5329V25.456C57.7675 25.008 58.0929 24.6613 58.5089 24.416C58.9249 24.1707 59.4102 24.048 59.9649 24.048C61.1595 24.048 61.9329 24.5707 62.2849 25.616C62.5302 25.1253 62.8822 24.7413 63.3409 24.464C63.7995 24.1867 64.3222 24.048 64.9089 24.048C66.6582 24.048 67.5329 25.0933 67.5329 27.184V32H65.9169V27.264C65.9169 26.6027 65.7995 26.1173 65.5649 25.808C65.3409 25.4987 64.9675 25.344 64.4449 25.344C63.8582 25.344 63.3942 25.552 63.0529 25.968C62.7115 26.3733 62.5409 26.928 62.5409 27.632V32H60.9249V27.264C60.9249 26.6027 60.8129 26.1173 60.5889 25.808C60.3649 25.4987 59.9915 25.344 59.4689 25.344C58.8822 25.344 58.4182 25.552 58.0769 25.968C57.7462 26.3733 57.5809 26.928 57.5809 27.632V32H55.9649ZM69.6483 22.384V20.704H71.5363V22.384H69.6483ZM69.7923 32V24.192H71.4083V32H69.7923ZM73.6829 32V24.192H75.2509V25.488C75.5175 25.0187 75.8802 24.6613 76.3389 24.416C76.8082 24.1707 77.3309 24.048 77.9069 24.048C79.7522 24.048 80.6749 25.0933 80.6749 27.184V32H79.0589V27.28C79.0589 26.608 78.9255 26.1173 78.6589 25.808C78.4029 25.4987 77.9975 25.344 77.4429 25.344C76.7922 25.344 76.2695 25.552 75.8749 25.968C75.4909 26.3733 75.2989 26.912 75.2989 27.584V32H73.6829ZM86.4376 35.024C85.7336 35.024 85.0776 34.9387 84.4696 34.768C83.8616 34.608 83.323 34.352 82.8536 34L83.3496 32.848C83.819 33.168 84.299 33.4027 84.7896 33.552C85.2803 33.7013 85.7923 33.776 86.3256 33.776C87.819 33.776 88.5656 33.0293 88.5656 31.536V30.304C88.3416 30.7733 87.9896 31.1413 87.5096 31.408C87.0403 31.6747 86.5123 31.808 85.9256 31.808C85.2216 31.808 84.6083 31.648 84.0856 31.328C83.563 30.9973 83.1576 30.544 82.8696 29.968C82.5816 29.3813 82.4376 28.6987 82.4376 27.92C82.4376 27.152 82.5816 26.48 82.8696 25.904C83.1576 25.3173 83.563 24.864 84.0856 24.544C84.6083 24.2133 85.2216 24.048 85.9256 24.048C86.523 24.048 87.0563 24.1813 87.5256 24.448C87.995 24.7147 88.3416 25.0827 88.5656 25.552V24.192H90.1336V31.344C90.1336 32.5707 89.819 33.488 89.1896 34.096C88.5603 34.7147 87.643 35.024 86.4376 35.024ZM86.3096 30.544C86.9923 30.544 87.5363 30.3093 87.9416 29.84C88.347 29.3707 88.5496 28.7307 88.5496 27.92C88.5496 27.1093 88.347 26.4747 87.9416 26.016C87.5363 25.5467 86.9923 25.312 86.3096 25.312C85.627 25.312 85.083 25.5467 84.6776 26.016C84.2723 26.4747 84.0696 27.1093 84.0696 27.92C84.0696 28.7307 84.2723 29.3707 84.6776 29.84C85.083 30.3093 85.627 30.544 86.3096 30.544ZM99.5328 32V22.112H95.5328V20.72H105.181V22.112H101.181V32H99.5328ZM106.242 22.384V20.704H108.13V22.384H106.242ZM106.386 32V24.192H108.002V32H106.386ZM110.309 32V24.192H111.877V25.456C112.111 25.008 112.437 24.6613 112.853 24.416C113.269 24.1707 113.754 24.048 114.309 24.048C115.503 24.048 116.277 24.5707 116.629 25.616C116.874 25.1253 117.226 24.7413 117.685 24.464C118.143 24.1867 118.666 24.048 119.253 24.048C121.002 24.048 121.877 25.0933 121.877 27.184V32H120.261V27.264C120.261 26.6027 120.143 26.1173 119.909 25.808C119.685 25.4987 119.311 25.344 118.789 25.344C118.202 25.344 117.738 25.552 117.397 25.968C117.055 26.3733 116.885 26.928 116.885 27.632V32H115.269V27.264C115.269 26.6027 115.157 26.1173 114.933 25.808C114.709 25.4987 114.335 25.344 113.813 25.344C113.226 25.344 112.762 25.552 112.421 25.968C112.09 26.3733 111.925 26.928 111.925 27.632V32H110.309ZM127.8 32.144C126.52 32.144 125.512 31.7867 124.776 31.072C124.04 30.3467 123.672 29.36 123.672 28.112C123.672 27.312 123.832 26.608 124.152 26C124.483 25.3813 124.936 24.9013 125.512 24.56C126.088 24.2187 126.749 24.048 127.496 24.048C128.573 24.048 129.421 24.3947 130.04 25.088C130.659 25.7707 130.968 26.7147 130.968 27.92V28.464H125.24C125.357 30.0853 126.216 30.896 127.816 30.896C128.264 30.896 128.701 30.8267 129.128 30.688C129.565 30.5493 129.976 30.32 130.36 30L130.84 31.12C130.488 31.44 130.035 31.6907 129.48 31.872C128.925 32.0533 128.365 32.144 127.8 32.144ZM127.56 25.184C126.888 25.184 126.355 25.392 125.96 25.808C125.565 26.224 125.325 26.7787 125.24 27.472H129.608C129.576 26.7467 129.384 26.1867 129.032 25.792C128.68 25.3867 128.189 25.184 127.56 25.184Z" fill="white"/>
<path d="M24.4 82.28C22.104 82.28 20.3027 81.7853 18.996 80.796C17.708 79.8067 17.064 78.4347 17.064 76.68C17.064 75.4853 17.372 74.468 17.988 73.628C18.6227 72.788 19.444 72.2 20.452 71.864C19.556 71.472 18.8467 70.8747 18.324 70.072C17.82 69.2693 17.568 68.3453 17.568 67.3C17.568 65.6387 18.184 64.3413 19.416 63.408C20.648 62.456 22.3093 61.98 24.4 61.98C26.5093 61.98 28.18 62.456 29.412 63.408C30.644 64.3413 31.26 65.6387 31.26 67.3C31.26 68.3453 30.9987 69.2787 30.476 70.1C29.972 70.9027 29.2813 71.4907 28.404 71.864C29.412 72.2 30.2147 72.7973 30.812 73.656C31.428 74.496 31.736 75.504 31.736 76.68C31.736 78.4347 31.0827 79.8067 29.776 80.796C28.488 81.7853 26.696 82.28 24.4 82.28ZM24.4 70.604C25.5013 70.604 26.36 70.3427 26.976 69.82C27.6107 69.2973 27.928 68.5787 27.928 67.664C27.928 66.768 27.6107 66.068 26.976 65.564C26.36 65.0413 25.5013 64.78 24.4 64.78C23.2987 64.78 22.44 65.0413 21.824 65.564C21.208 66.068 20.9 66.768 20.9 67.664C20.9 68.5787 21.208 69.2973 21.824 69.82C22.44 70.3427 23.2987 70.604 24.4 70.604ZM24.4 79.48C27.0693 79.48 28.404 78.4627 28.404 76.428C28.404 74.412 27.0693 73.404 24.4 73.404C23.0933 73.404 22.0947 73.656 21.404 74.16C20.732 74.664 20.396 75.42 20.396 76.428C20.396 77.436 20.732 78.2013 21.404 78.724C22.0947 79.228 23.0933 79.48 24.4 79.48ZM40.6771 82.28C39.6317 82.28 38.5957 82.084 37.5691 81.692C36.5424 81.2813 35.6557 80.7307 34.9091 80.04L36.1131 77.352C36.7851 77.9867 37.5131 78.4627 38.2971 78.78C39.0997 79.0973 39.9024 79.256 40.7051 79.256C42.3477 79.256 43.5984 78.6867 44.4571 77.548C45.3157 76.4093 45.7451 74.7107 45.7451 72.452V71.612C45.3717 72.6387 44.7464 73.4507 43.8691 74.048C42.9917 74.6267 41.9651 74.916 40.7891 74.916C39.6691 74.916 38.6704 74.6453 37.7931 74.104C36.9157 73.5627 36.2157 72.816 35.6931 71.864C35.1891 70.8933 34.9371 69.8013 34.9371 68.588C34.9371 67.3 35.2171 66.1613 35.7771 65.172C36.3371 64.1827 37.1024 63.408 38.0731 62.848C39.0624 62.2693 40.1917 61.98 41.4611 61.98C43.9251 61.98 45.8197 62.8387 47.1451 64.556C48.4704 66.2547 49.1331 68.6627 49.1331 71.78C49.1331 75.1027 48.3864 77.688 46.8931 79.536C45.3997 81.3653 43.3277 82.28 40.6771 82.28ZM41.6851 72.06C42.6931 72.06 43.5051 71.7333 44.1211 71.08C44.7557 70.408 45.0731 69.5307 45.0731 68.448C45.0731 67.3653 44.7557 66.488 44.1211 65.816C43.5051 65.144 42.6931 64.808 41.6851 64.808C40.6771 64.808 39.8557 65.144 39.2211 65.816C38.6051 66.488 38.2971 67.3653 38.2971 68.448C38.2971 69.5307 38.6051 70.408 39.2211 71.08C39.8557 71.7333 40.6771 72.06 41.6851 72.06ZM54.7981 85.724L53.3701 84.604C53.8368 84.1373 54.1821 83.6893 54.4061 83.26C54.6488 82.8493 54.8168 82.4293 54.9101 82H53.0901V78.108H57.0101V80.684C57.0101 81.636 56.8421 82.504 56.5061 83.288C56.1888 84.0907 55.6195 84.9027 54.7981 85.724ZM67.9234 82.28C65.5901 82.28 63.8074 81.4027 62.5754 79.648C61.3434 77.8747 60.7274 75.3547 60.7274 72.088C60.7274 68.784 61.3434 66.2733 62.5754 64.556C63.8074 62.8387 65.5901 61.98 67.9234 61.98C70.2754 61.98 72.0581 62.8387 73.2714 64.556C74.5034 66.2733 75.1194 68.7747 75.1194 72.06C75.1194 75.3453 74.5034 77.8747 73.2714 79.648C72.0394 81.4027 70.2568 82.28 67.9234 82.28ZM67.9234 79.34C69.1928 79.34 70.1261 78.7613 70.7234 77.604C71.3394 76.428 71.6474 74.58 71.6474 72.06C71.6474 69.5587 71.3394 67.748 70.7234 66.628C70.1261 65.4893 69.1928 64.92 67.9234 64.92C66.6728 64.92 65.7394 65.4893 65.1234 66.628C64.5074 67.748 64.1994 69.5587 64.1994 72.06C64.1994 74.58 64.5074 76.428 65.1234 77.604C65.7394 78.7613 66.6728 79.34 67.9234 79.34ZM85.7125 82.28C83.3792 82.28 81.5965 81.4027 80.3645 79.648C79.1325 77.8747 78.5165 75.3547 78.5165 72.088C78.5165 68.784 79.1325 66.2733 80.3645 64.556C81.5965 62.8387 83.3792 61.98 85.7125 61.98C88.0645 61.98 89.8472 62.8387 91.0605 64.556C92.2925 66.2733 92.9085 68.7747 92.9085 72.06C92.9085 75.3453 92.2925 77.8747 91.0605 79.648C89.8285 81.4027 88.0458 82.28 85.7125 82.28ZM85.7125 79.34C86.9818 79.34 87.9152 78.7613 88.5125 77.604C89.1285 76.428 89.4365 74.58 89.4365 72.06C89.4365 69.5587 89.1285 67.748 88.5125 66.628C87.9152 65.4893 86.9818 64.92 85.7125 64.92C84.4618 64.92 83.5285 65.4893 82.9125 66.628C82.2965 67.748 81.9885 69.5587 81.9885 72.06C81.9885 74.58 82.2965 76.428 82.9125 77.604C83.5285 78.7613 84.4618 79.34 85.7125 79.34ZM103.502 82.28C101.168 82.28 99.3856 81.4027 98.1536 79.648C96.9216 77.8747 96.3056 75.3547 96.3056 72.088C96.3056 68.784 96.9216 66.2733 98.1536 64.556C99.3856 62.8387 101.168 61.98 103.502 61.98C105.854 61.98 107.636 62.8387 108.85 64.556C110.082 66.2733 110.698 68.7747 110.698 72.06C110.698 75.3453 110.082 77.8747 108.85 79.648C107.618 81.4027 105.835 82.28 103.502 82.28ZM103.502 79.34C104.771 79.34 105.704 78.7613 106.302 77.604C106.918 76.428 107.226 74.58 107.226 72.06C107.226 69.5587 106.918 67.748 106.302 66.628C105.704 65.4893 104.771 64.92 103.502 64.92C102.251 64.92 101.318 65.4893 100.702 66.628C100.086 67.748 99.7776 69.5587 99.7776 72.06C99.7776 74.58 100.086 76.428 100.702 77.604C101.318 78.7613 102.251 79.34 103.502 79.34ZM123.258 82V62.26H126.758V70.296C127.224 69.5493 127.85 68.9893 128.633 68.616C129.418 68.224 130.286 68.028 131.238 68.028C134.467 68.028 136.082 69.904 136.082 73.656V82H132.582V73.824C132.582 72.76 132.376 71.9853 131.966 71.5C131.574 71.0147 130.958 70.772 130.118 70.772C129.091 70.772 128.27 71.0987 127.654 71.752C127.056 72.3867 126.758 73.236 126.758 74.3V82H123.258ZM140.636 82V68.308H144.052V70.716C144.724 69.092 146.162 68.196 148.364 68.028L149.428 67.944L149.652 70.912L147.636 71.108C145.34 71.332 144.192 72.508 144.192 74.636V82H140.636Z" fill="white"/>
</svg>
